<?xml version="1.0" encoding="utf-8"?>
<!-- Generator: Adobe Illustrator 21.0.0, SVG Export Plug-In . SVG Version: 6.00 Build 0)  -->
<svg version="1.1" id="digital" xmlns="http://www.w3.org/2000/svg" xmlns:xlink="http://www.w3.org/1999/xlink" x="0px" y="0px"
	 viewBox="0 0 722.5 414" style="enable-background:new 0 0 722.5 414;" xml:space="preserve">
<style type="text/css">
	.st0{fill:none;stroke:#4782C3;stroke-width:3;stroke-miterlimit:10;}
	.st1{fill:none;stroke:#4782C3;stroke-width:3;stroke-miterlimit:10;stroke-dasharray:2;}
	.st2{fill:none;stroke:#4782C3;stroke-width:3;stroke-linecap:round;stroke-linejoin:round;}
	.st3{fill:none;stroke:#4782C3;stroke-width:3;stroke-miterlimit:10;stroke-dasharray:1.9612,1.9612;}
	.st4{fill:#4782C3;}
	.st5{fill:#FFFFFF;stroke:#4782C3;stroke-width:3;stroke-linecap:round;stroke-linejoin:round;}
	.st6{fill:#E4F0FA;stroke:#4782C3;stroke-width:3;stroke-miterlimit:10;}
	.st7{fill:#FFFFFF;stroke:#4782C3;stroke-width:3;stroke-miterlimit:10;}
	.st8{fill:#38B9D1;stroke:#4782C3;stroke-width:3;stroke-miterlimit:10;}
	.st9{fill:#7FB2E0;}
	.st10{fill:#FFFFFF;}
	.st11{clip-path:url(#SVGID_2_);}
	.st12{fill:#E4F0FA;}
	.st13{fill:#E4F0FA;stroke:#4782C3;stroke-width:3;stroke-linecap:round;stroke-linejoin:round;}
</style>
<g id="chart-2">
	<polyline id="chart-2-line" class="st0" points="513.1,59.3 454.7,59.3 454.7,37.3 	"/>
	<path id="chart-2-el2" class="st0" d="M491.4,53.9c-9.9-0.7-10.2-16.1-10.6-31.1c-0.2-9.4-0.5-21-4-21.3c-3.5,0.3-3.8,12-4,21.3
		c-0.4,15-0.7,30.4-10.6,31.1"/>
	<path id="chart-2-el1" class="st0" d="M510.1,53.9c-9.9,0-11.8-10.2-13.2-17.7c-1-5.6-1.9-9.2-4-9.3c-2.1,0.1-2.9,3.8-4,9.3
		c-1.4,7.5-3.3,17.7-13.2,17.7"/>
</g>
<g id="chart">
	<rect id="chart-box4" x="564" y="205.6" class="st0" width="8.4" height="12.6"/>
	<rect id="chart-box3" x="578.8" y="190" class="st0" width="8.4" height="28.2"/>
	<rect id="chart-box2" x="593.6" y="194.9" class="st0" width="8.4" height="23.3"/>
	<rect id="chart-box1" x="608.4" y="181.9" class="st0" width="8.4" height="36.2"/>
	<polyline id="chart-line" class="st0" points="621.7,218.2 557.6,218.2 557.6,177.9 	"/>
</g>
<g id="digital-el">
	<line class="st0" x1="722.5" y1="412.5" x2="0" y2="412.5"/>
	<line class="st0" x1="319.6" y1="35.7" x2="229.4" y2="35.7"/>
	<line class="st1" x1="321.3" y1="85.4" x2="243.6" y2="85.4"/>
	<line class="st0" x1="373.3" y1="35.7" x2="333.4" y2="35.7"/>
	<line class="st0" x1="702" y1="265.4" x2="662.1" y2="265.4"/>
	<polyline class="st0" points="17.8,248 24.9,255.1 39.5,240.5 	"/>
	<line class="st0" x1="177.1" y1="39.8" x2="158.4" y2="39.8"/>
	<line class="st0" x1="167.7" y1="49.1" x2="167.7" y2="30.5"/>
	<line class="st0" x1="465.1" y1="139.2" x2="451.9" y2="126"/>
	<line class="st0" x1="451.9" y1="139.2" x2="465.1" y2="126"/>
	<line class="st0" x1="574.5" y1="91.7" x2="664.7" y2="91.7"/>
	<line class="st0" x1="636.5" y1="106" x2="676.4" y2="106"/>
	<line class="st0" x1="51.4" y1="128.3" x2="11.5" y2="128.3"/>
	<line class="st0" x1="56.2" y1="153.6" x2="42.1" y2="153.6"/>
	<line class="st0" x1="128.7" y1="75" x2="55.7" y2="75"/>
	<line class="st0" x1="576.1" y1="77.5" x2="616" y2="77.5"/>
	<line class="st0" x1="407.3" y1="75" x2="447.2" y2="75"/>
	<line class="st0" x1="196.6" y1="101.1" x2="240.1" y2="101.1"/>
	<path class="st2" d="M719.8,265.6c0,3.2-2.6,5.7-5.7,5.7c-3.2,0-5.7-2.6-5.7-5.7s2.6-5.7,5.7-5.7l0,0
		C717.2,259.9,719.8,262.4,719.8,265.6z"/>
	<line class="st0" x1="557" y1="132.7" x2="556" y2="132.7"/>
	<line class="st3" x1="554" y1="132.7" x2="472.6" y2="132.7"/>
	<line class="st0" x1="471.7" y1="132.7" x2="470.7" y2="132.7"/>
	<line class="st0" x1="507.3" y1="174.3" x2="463.6" y2="174.3"/>
	<line class="st1" x1="354.7" y1="10.6" x2="304" y2="10.6"/>
</g>
<g id="gears">
	<path id="gears-big" class="st4" d="M388.6,137.3L388.6,137.3l3.9,1.2c0.1,0,0.1,0.1,0.2,0.1c0,0.1,0,0.1,0,0.2l-0.9,2.9l0.5,0.3
		c1.3,0.7,2.5,1.5,3.5,2.5l0.5,0.4l2.4-1.8c0.1,0,0.1-0.1,0.2-0.1c0.1,0,0.2,0.1,0.2,0.1l2.4,3.3c0.1,0.1,0.1,0.3-0.1,0.4
		c0,0,0,0,0,0l-2.4,1.8l0.3,0.6c0.6,1.3,1.1,2.7,1.4,4.1l0.1,0.6h3c0.2,0,0.3,0.1,0.3,0.3v4.1c0,0.2-0.1,0.3-0.3,0.3h-3l-0.1,0.6
		c-0.1,0.7-0.3,1.5-0.5,2.2c-0.2,0.7-0.5,1.4-0.8,2l-0.3,0.6l2.4,1.7c0.1,0,0.1,0.1,0.1,0.2c0,0.1,0,0.1,0,0.2l-2.3,3.3
		c-0.1,0.1-0.3,0.2-0.4,0.1c0,0,0,0,0,0l-2.4-1.7l-0.4,0.4c-1.1,1-2.2,1.9-3.5,2.6l-0.5,0.3l0.9,2.8c0.1,0.1,0,0.3-0.2,0.4
		c0,0,0,0,0,0l-4,1.3c-0.1,0-0.2-0.1-0.3-0.2l-0.9-2.8l-0.6,0.1c-1.5,0.2-2.9,0.2-4.4,0l-0.6-0.1l-0.9,2.8c0,0.1-0.1,0.2-0.3,0.2
		l-4-1.3c-0.1,0-0.2-0.2-0.2-0.4c0,0,0,0,0,0l0.9-2.8l-0.5-0.3c-1.3-0.7-2.5-1.6-3.5-2.6l-0.5-0.4l-2.4,1.8c-0.1,0-0.1,0.1-0.2,0.1
		c-0.1,0-0.2-0.1-0.2-0.1l-2.4-3.3c0-0.1-0.1-0.1,0-0.2c0-0.1,0.1-0.1,0.1-0.2l2.4-1.8l-0.3-0.6c-0.6-1.3-1.1-2.7-1.4-4.2l-0.1-0.6
		h-3c-0.2,0-0.3-0.1-0.3-0.3v-4c0-0.1,0-0.1,0.1-0.2c0.1-0.1,0.1-0.1,0.2-0.1h3l0.1-0.6c0.3-1.4,0.7-2.8,1.4-4.1l0.3-0.6l-2.5-1.8
		c-0.1-0.1-0.2-0.3-0.1-0.4c0,0,0,0,0,0l2.4-3.3c0-0.1,0.1-0.1,0.2-0.1c0.1,0,0.1,0,0.2,0.1l2.5,1.8l0.4-0.4c1.1-1,2.2-1.9,3.5-2.6
		l0.5-0.3l-0.9-2.9c0-0.1,0-0.3,0.2-0.4l4-1.3c0.1,0,0.2,0.1,0.3,0.2l1,2.9l0.6-0.1c0.7-0.1,1.5-0.2,2.2-0.2c0.7,0,1.4,0.1,2.1,0.1
		l0.6,0.1l1-2.9C388.3,137.4,388.5,137.3,388.6,137.3 M384.6,165.7c5,0,9-4,9-9s-4-9-9-9s-9,4-9,9S379.6,165.7,384.6,165.7
		 M388.6,134.3c-1.4,0-2.7,0.9-3.2,2.3l-0.2,0.6h-0.6h-0.7l-0.2-0.6c-0.4-1.3-1.7-2.3-3.1-2.3h-0.5l-0.5,0.1l-4,1.3
		c-1.7,0.6-2.6,2.4-2.1,4.1l0.2,0.6c-0.4,0.3-0.7,0.5-1.1,0.8l-0.5-0.4c-1.4-1.1-3.4-0.8-4.5,0.6c0,0,0,0.1-0.1,0.1l-2.4,3.3
		c-1.1,1.5-0.7,3.5,0.7,4.6l0.5,0.4c-0.1,0.2-0.2,0.5-0.2,0.7c-0.1,0.2-0.1,0.4-0.2,0.6h-0.6c-1.8,0-3.3,1.5-3.3,3.3c0,0,0,0,0,0v4
		c0,1.8,1.5,3.3,3.3,3.3h0.6c0.1,0.4,0.3,0.9,0.4,1.3l-0.5,0.3c-1.5,1.1-1.8,3.1-0.7,4.6l2.4,3.3c1,1.5,3,1.8,4.5,0.8
		c0,0,0.1-0.1,0.1-0.1l0.4-0.3c0.4,0.3,0.7,0.6,1.1,0.8l-0.2,0.5c-0.6,1.7,0.4,3.6,2.1,4.1c0,0,0,0,0,0l4,1.3l0.4,0.1h0.5
		c1.4,0,2.7-0.9,3.1-2.2l0.2-0.5h0.7h0.7l0.2,0.5c0.4,1.3,1.7,2.3,3.1,2.3h0.5l0.5-0.1l4-1.3c1.7-0.6,2.7-2.4,2.1-4.1c0,0,0,0,0,0
		l-0.2-0.5c0.4-0.3,0.8-0.5,1.1-0.8l0.4,0.3c1.5,1.1,3.5,0.7,4.6-0.7l2.4-3.3c0.5-0.7,0.7-1.6,0.6-2.5c-0.2-0.8-0.6-1.6-1.4-2
		l-0.5-0.3c0.1-0.2,0.1-0.4,0.2-0.6c0.1-0.2,0.1-0.4,0.2-0.7h0.6c1.8,0,3.3-1.5,3.3-3.3c0,0,0,0,0,0v-4.1c0-1.8-1.5-3.3-3.3-3.3
		h-0.6c-0.1-0.4-0.3-0.9-0.4-1.3l0.5-0.4c1.5-1.1,1.8-3.1,0.7-4.6l-2.4-3.3c-1-1.5-3-1.8-4.5-0.8c0,0-0.1,0-0.1,0.1l-0.5,0.4
		c-0.4-0.3-0.7-0.5-1.1-0.8l0.2-0.6c0.6-1.7-0.4-3.6-2.1-4.1c0,0,0,0,0,0l-3.9-1.2l-0.4-0.1h-0.4L388.6,134.3L388.6,134.3z
		 M384.6,162.7c-3.3,0-6-2.7-6-6s2.7-6,6-6s6,2.7,6,6S387.9,162.7,384.6,162.7L384.6,162.7z"/>
	<g id="gears-small">
		<path class="st0" d="M369.8,123.8c-0.2-0.2-0.4-0.5-0.3-0.8c0.3-1.5,0.3-3.1,0-4.7c-0.1-0.3,0-0.6,0.3-0.8l3.5-2.5
			c0.2-0.2,0.3-0.5,0.1-0.7c0,0,0,0,0,0l-4.1-5.7c-0.2-0.2-0.5-0.3-0.7-0.1c0,0,0,0,0,0l-3.4,2.4c-0.3,0.2-0.6,0.2-0.9,0
			c-1.4-0.9-3-1.4-4.7-1.6c-0.3,0-0.6-0.2-0.7-0.5l-1.2-3.8c-0.1-0.3-0.4-0.4-0.6-0.3l-6.7,2.2c-0.3,0.1-0.4,0.4-0.3,0.6l1.2,3.6
			c0.1,0.3,0,0.5-0.2,0.7c-1.4,1.2-2.6,2.7-3.3,4.3c-0.1,0.3-0.4,0.5-0.7,0.5h-3.7c-0.3,0-0.5,0.2-0.5,0.5v7c0,0.3,0.2,0.5,0.5,0.5
			h3.7c0.3,0,0.5,0.1,0.6,0.4c0.7,1.7,1.8,3.2,3.2,4.4c0.3,0.2,0.4,0.5,0.3,0.8l-1.2,3.6c-0.1,0.3,0.1,0.5,0.3,0.6l6.7,2.2
			c0.3,0.1,0.5-0.1,0.6-0.3l1.2-3.8c0.1-0.3,0.4-0.5,0.7-0.5c1.6-0.2,3.2-0.8,4.6-1.6c0.3-0.2,0.6-0.2,0.8,0l3.4,2.4
			c0.2,0.2,0.5,0.1,0.7-0.1c0,0,0,0,0,0l4.1-5.7c0.2-0.2,0.1-0.5-0.1-0.7c0,0,0,0,0,0L369.8,123.8z"/>
		<circle class="st0" cx="358.2" cy="120.6" r="4.2"/>
	</g>
</g>
<g id="digital-ipad">
	<path class="st5" d="M502.1,244.9h83.8c10.5,0,18.9,8.5,18.9,18.9v129.7c0,10.5-8.5,18.9-18.9,18.9h-83.8
		c-10.5,0-18.9-8.5-18.9-18.9V263.8C483.1,253.3,491.6,244.9,502.1,244.9C502.1,244.9,502.1,244.9,502.1,244.9z"/>
	<path id="digital-ipad-button" class="st5" d="M543.8,392.6c-3.1,0-5.6,2.5-5.5,5.6c0,3.1,2.5,5.6,5.6,5.5c3.1,0,5.5-2.5,5.5-5.6
		C549.4,395,546.9,392.6,543.8,392.6C543.8,392.6,543.8,392.6,543.8,392.6z"/>
	<rect x="493.4" y="261.5" class="st6" width="100.8" height="124.1"/>
	<g id="digital-ipad-main">
		<circle class="st7" cx="542.7" cy="314" r="33"/>
		<path id="_x3C_path_x3E_" class="st6" d="M529.8,313.8c0,7.2,5.8,13,13,13s13-5.8,13-13s-5.8-13-13-13S529.8,306.6,529.8,313.8
			L529.8,313.8z"/>
		<path class="st7" d="M542.7,314v-36.2c20.1,0,36.4,16.1,36.7,36.2H542.7z"/>
		<path class="st7" d="M542.7,313.9l27.8-27.8c15.4,15.4,15.5,40.3,0.3,55.9L542.7,313.9z"/>
		<path class="st7" d="M542.7,314.1l-16.5,32.2c-17.9-9.1-25.1-30.9-16.1-48.9L542.7,314.1z"/>
		<path class="st8" d="M575.7,313.8v0.2c0,18.2-14.8,33-33,33s-33-14.8-33-33c0-0.1,0-0.1,0-0.2H575.7z"/>
		<path class="st7" d="M542.7,313.8l11.8,36.4c-20.2,6.5-41.9-4.4-48.7-24.5L542.7,313.8z"/>
	</g>
	<g id="digital-ipad-text">
		<rect x="505.7" y="365" class="st9" width="66.9" height="4.1"/>
		<rect x="505.7" y="372.4" class="st9" width="56.4" height="4.1"/>
	</g>
</g>
<g id="digital-magnifying-glass">
	<g id="digital-magnifying-glass-bottom">
		
			<rect x="625.8" y="365.3" transform="matrix(0.3195 -0.9476 0.9476 0.3195 73.0787 859.119)" class="st7" width="17.7" height="26.8"/>
		<path class="st7" d="M689.9,382.1c7.5,2.6,11.4,10.8,8.8,18.3c-2.6,7.4-10.6,11.3-18,8.9l-36.3-12.2c-2.3-0.8-3.5-3.2-2.7-5.5
			c0,0,0,0,0,0l6.4-19c0.8-2.3,3.2-3.5,5.5-2.7L689.9,382.1z"/>
	</g>
	<ellipse transform="matrix(0.3196 -0.9475 0.9475 0.3196 52.8344 793.3264)" class="st7" cx="578.8" cy="359.9" rx="51" ry="51"/>
	
		<ellipse transform="matrix(0.3192 -0.9477 0.9477 0.3192 55.0391 793.7586)" class="st6" cx="580" cy="358.6" rx="39.8" ry="39.8"/>
	
		<ellipse transform="matrix(0.1778 -0.9841 0.9841 0.1778 121.8149 865.4244)" class="st10" cx="578.8" cy="359.8" rx="40.1" ry="40.1"/>
	<g id="digital-magnifying-glass-in">
		<defs>
			
				<ellipse id="SVGID_1_" transform="matrix(0.1778 -0.9841 0.9841 0.1778 121.8051 865.4327)" cx="578.8" cy="359.8" rx="40.1" ry="40.1"/>
		</defs>
		<clipPath id="SVGID_2_">
			<use xlink:href="#SVGID_1_"  style="overflow:visible;"/>
		</clipPath>
		<g class="st11">
			<path class="st7" d="M542.5,326.7l-6-57.2c31.7-3.3,60.2,19.4,63.9,51.1L542.5,326.7z"/>
			<path class="st7" d="M594.6,320.9v0.3c3.2,28.8-17.6,54.6-46.4,57.8c-28.8,3.2-54.6-17.6-57.8-46.4c0-0.2,0-0.3,0-0.5
				c0-0.1,0-0.2,0-0.3L594.6,320.9z"/>
			<path class="st7" d="M542.5,326.4l39.2-48.5c26.9,21.8,31.2,61.1,9.8,88.2L542.5,326.4z"/>
			<path class="st7" d="M542.5,326.7l-20.7,53.7c-29.7-11.5-44.7-44.7-33.6-74.6L542.5,326.7z"/>
			<path class="st7" d="M542.5,326.3l24.7,55.6c-30.8,13.7-66.9,0-80.9-30.6L542.5,326.3z"/>
			<path class="st7" d="M522,328.5c1.2,11.3,11.3,19.5,22.6,18.3c11.3-1.2,19.5-11.3,18.3-22.6s-11.3-19.5-22.6-18.3c0,0,0,0,0,0
				C529,307.1,520.8,317.2,522,328.5z"/>
		</g>
	</g>
	
		<ellipse transform="matrix(0.1778 -0.9841 0.9841 0.1778 121.8149 865.4244)" class="st2" cx="578.8" cy="359.8" rx="40.1" ry="40.1"/>
</g>
<g id="digital-paper">
	<path class="st5" d="M260.4,142.1c0-11.9,9.6-21.5,21.5-21.5c4.3,0,8.5,1.3,12.1,3.7c-4.5-3.7-10.2-5.7-16.1-5.7H106.9
		c-14.8,0-26.8,12-26.8,26.8v267.1h153.5c14.8,0,26.8-12,26.8-26.8c0,0,0,0,0,0V142.1z"/>
	<path class="st5" d="M260.4,142.1v2.7h42.9v-0.6c0-7.7-3.5-14.9-9.4-19.8c-9.8-6.6-23.2-4.1-29.8,5.8
		C261.7,133.6,260.4,137.8,260.4,142.1z"/>
	<path class="st5" d="M215.5,391v-21.9H34.7V391c0,11.1,8.4,20.4,19.5,21.4h182.7C225.1,412.4,215.5,402.9,215.5,391
		C215.5,391,215.5,391,215.5,391z"/>
	<rect x="114.2" y="379.3" class="st9" width="5.3" height="6.7"/>
	<rect x="102.2" y="379.3" class="st9" width="5.3" height="6.7"/>
	<rect x="90.1" y="379.3" class="st9" width="5.3" height="6.7"/>
	<rect x="78.1" y="379.3" class="st9" width="5.3" height="6.7"/>
	<rect x="186.4" y="379.3" class="st9" width="5.3" height="6.7"/>
	<rect x="174.4" y="379.3" class="st9" width="5.3" height="6.7"/>
	<rect x="198.5" y="379.3" class="st9" width="5.3" height="6.7"/>
	<rect x="162.4" y="379.3" class="st9" width="5.3" height="6.7"/>
	<rect x="150.3" y="379.3" class="st9" width="5.3" height="6.7"/>
	<rect x="138.3" y="379.3" class="st9" width="5.3" height="6.7"/>
	<rect x="126.2" y="379.3" class="st9" width="5.3" height="6.7"/>
	<rect x="248.1" y="254.6" class="st9" width="7.2" height="3.2"/>
	<rect x="248.1" y="270.7" class="st9" width="7.2" height="3.2"/>
	<rect x="248.1" y="286.9" class="st9" width="7.2" height="3.2"/>
	<rect x="248.1" y="303" class="st9" width="7.2" height="3.2"/>
	<rect x="248.1" y="319.1" class="st9" width="7.2" height="3.2"/>
	<rect x="248.1" y="335.2" class="st9" width="7.2" height="3.2"/>
	<rect x="248.1" y="351.3" class="st9" width="7.2" height="3.2"/>
	<g id="digital-paper-lines">
		<rect x="202.9" y="180.6" class="st9" width="10.4" height="4.6"/>
		<rect x="202.9" y="202.7" class="st9" width="10.4" height="4.6"/>
		<rect x="202.9" y="224.8" class="st9" width="10.4" height="4.6"/>
		<rect x="202.9" y="158.4" class="st9" width="10.4" height="4.6"/>
		<rect x="202.9" y="247" class="st9" width="10.4" height="4.6"/>
		<rect x="202.9" y="269.1" class="st9" width="10.4" height="4.6"/>
		<rect x="202.9" y="291.2" class="st9" width="10.4" height="4.6"/>
		<rect x="202.9" y="313.4" class="st9" width="10.4" height="4.6"/>
		<rect x="202.9" y="313.4" class="st9" width="10.4" height="4.6"/>
		<rect x="202.9" y="335.5" class="st9" width="10.4" height="4.6"/>
		<rect x="202.9" y="357.6" class="st9" width="10.4" height="4.6"/>
		<polygon class="st9" points="225.6,151.5 218.8,151.5 218.8,389.6 225.6,393.2 		"/>
	</g>
	<g id="digital-paper-branches">
		<path class="st9" d="M136.5,177.4c-10.6-9.9,4.3-26,15-16.1S147.2,187.2,136.5,177.4z M139.4,174.3c6.5,6.1,15.9-3.8,9.3-10
			S132.8,168.2,139.4,174.3L139.4,174.3z"/>
		<path class="st12" d="M135.1,355.6c-8.2-12,9.9-24.4,18.1-12.4S143.3,367.6,135.1,355.6z M140.3,343.8c-3,2.2-3.7,6.5-1.5,9.5
			c2.1,2.9,6.1,3.7,9.2,1.7C155.4,349.9,147.8,338.7,140.3,343.8z"/>
		<path class="st12" d="M138.7,304.3c-8.2-12,9.9-24.4,18.1-12.4S146.9,316.3,138.7,304.3z M143.9,292.5c-3.1,2.1-3.9,6.4-1.8,9.5
			c2.1,3.1,6.4,3.9,9.5,1.8C159.1,298.6,151.4,287.4,143.9,292.5z"/>
		<path class="st9" d="M129.9,264c-8.2-12,10-24.4,18.2-12.4C156.2,263.6,138.1,276,129.9,264z M133.3,261.7
			c5.1,7.4,16.3-0.2,11.2-7.7C139.5,246.6,128.3,254.3,133.3,261.7L133.3,261.7z"/>
		<path class="st9" d="M98.1,301c-8.2-12,10-24.4,18.2-12.4S106.3,313,98.1,301z M101.5,298.7c5.1,7.4,16.3-0.3,11.2-7.7
			S96.5,291.2,101.5,298.7L101.5,298.7z"/>
		<path class="st9" d="M107.9,345c-8.2-12,10-24.4,18.1-12.4S116.1,357,107.9,345z M111.3,342.7c5.1,7.4,16.3-0.2,11.2-7.7
			S106.3,335.2,111.3,342.7L111.3,342.7z"/>
		<path class="st9" d="M121.1,218.7c-8.2-12,9.9-24.4,18.1-12.4S129.3,230.7,121.1,218.7z M124.5,216.3c5.1,7.4,16.3-0.2,11.2-7.7
			S119.4,208.9,124.5,216.3z"/>
		<path class="st12" d="M196,275.9c-12,8.2-24.4-10-12.4-18.2C195.6,249.5,208,267.7,196,275.9z M186,261.2
			c-7.4,5.1,0.2,16.3,7.7,11.2S193.4,256.1,186,261.2L186,261.2z"/>
		<path class="st12" d="M171.2,243.4c-12,8.2-24.4-10-12.4-18.1S183.3,235.2,171.2,243.4z M161.2,228.7c-7.4,5.1,0.3,16.3,7.7,11.2
			S168.6,223.6,161.2,228.7L161.2,228.7z"/>
		
			<rect x="129.6" y="319.4" transform="matrix(8.367790e-02 -0.9965 0.9965 8.367790e-02 -188.5238 442.2539)" class="st12" width="33.2" height="8.4"/>
		
			<rect x="108.3" y="302.8" transform="matrix(0.9736 -0.2282 0.2282 0.9736 -69.2564 34.0212)" class="st9" width="8.4" height="27.5"/>
		<polygon class="st9" points="116,289.7 109.8,284.1 129.9,261.8 136.1,267.4 		"/>
		
			<rect x="131.1" y="220.4" transform="matrix(0.9779 -0.2093 0.2093 0.9779 -46.1328 33.5101)" class="st9" width="8.4" height="28.7"/>
		
			<rect x="123.2" y="186.4" transform="matrix(0.2539 -0.9672 0.9672 0.2539 -82.0243 274.8342)" class="st9" width="27.9" height="8.4"/>
		<polygon class="st12" points="181,262.3 167.7,244.7 174.4,239.7 187.7,257.2 		"/>
		<path class="st12" d="M165,201.8c-8.2-12,9.9-24.4,18.1-12.4S173.2,213.8,165,201.8z M168.5,199.4c5.1,7.4,16.3-0.2,11.2-7.7
			S163.4,192,168.5,199.4L168.5,199.4z"/>
		
			<rect x="159.5" y="210.4" transform="matrix(0.2874 -0.9578 0.9578 0.2874 -84.2886 315.7998)" class="st12" width="21.2" height="8.4"/>
		<polygon class="st12" points="157.2,295.1 152.3,288.2 180.2,268.3 185.1,275.1 		"/>
	</g>
</g>
<g id="digital-laptop">
	<path class="st5" d="M199.6,216.9c0-7.7,6.3-14,14-14H479c7.7,0,14,6.3,14,14v166.2H199.5L199.6,216.9L199.6,216.9z"/>
	<path class="st5" d="M179.5,383.1v6.1c0,16.9,13.7,23.3,30.6,23.3h272.5c16.9,0,30.6-6.4,30.6-23.3v-6.1H179.5z"/>
	<rect x="219.8" y="225.4" class="st13" width="256.5" height="147.8"/>
	<polyline id="digital-laptop-line-bottom" class="st0" points="260,254.6 260,353.1 446.1,353.1 	"/>
	<g id="digital-laptop-text">
		<rect x="269" y="253.7" class="st9" width="32.3" height="3.1"/>
		<rect x="269" y="260.3" class="st9" width="50.1" height="3.1"/>
		<rect x="269" y="266.8" class="st9" width="42.2" height="3.1"/>
	</g>
	<g id="digital-laptop-arow">
		<path id="digital-laptop-arow-2" class="st2" d="M277.5,304.1l20.7-17.2l9.3,11.1l31-26l14.6,17.9l37.5-31.2"/>
		<path id="digital-laptop-arow-1" class="st2" d="M390.5,268.4l0.3-9.1l0,0c0-0.5-0.4-0.9-0.9-0.9c0,0,0,0,0,0l0,0l-9.1,0.3"/>
	</g>
	<g id="digital-laptop-boxes">
		<rect id="digital-laptop-box6" x="270.1" y="328.2" class="st7" width="20.1" height="24"/>
		<rect id="digital-laptop-box5" x="300.1" y="314.3" class="st7" width="20.1" height="38"/>
		<rect id="digital-laptop-box4" x="330.1" y="301.3" class="st7" width="20.1" height="50.9"/>
		<rect id="digital-laptop-box3" x="360.1" y="307.3" class="st7" width="20.1" height="45"/>
		<rect id="digital-laptop-box2" x="390.1" y="279.3" class="st7" width="20.1" height="73"/>
		<rect id="digital-laptop-box1" x="420.1" y="248.1" class="st7" width="20.1" height="104.1"/>
	</g>
</g>
</svg>
