<?xml version="1.0" encoding="utf-8"?>
<!-- Generator: Adobe Illustrator 21.0.0, SVG Export Plug-In . SVG Version: 6.00 Build 0)  -->
<svg version="1.1" id="lean-development" xmlns="http://www.w3.org/2000/svg" xmlns:xlink="http://www.w3.org/1999/xlink" x="0px"
	 y="0px" viewBox="0 0 725.5 412.2" style="enable-background:new 0 0 725.5 412.2;" xml:space="preserve">
<style type="text/css">
	.st0{fill:#4782C3;}
	.st1{display:none;fill:#4782C3;}
	.st2{fill:#7FB2E0;}
	.st3{fill:#E4F0FA;}
	.st4{fill:none;stroke:#4782C3;stroke-width:3;stroke-linecap:round;stroke-linejoin:round;}
	.st5{fill:#FFFFFF;stroke:#4782C3;stroke-width:3;stroke-linecap:round;stroke-linejoin:round;}
	.st6{fill:none;stroke:#4782C3;stroke-width:3;stroke-miterlimit:10;}
</style>
<g id="lean-botton">
	<g id="lab-tube">
		<path class="st0" d="M604.2,356v-35.6h1.5c1-0.1,1.7-0.9,1.7-1.9c-0.1-0.9-0.8-1.6-1.7-1.7h-19.2c-1-0.1-1.9,0.7-1.9,1.7
			c-0.1,1,0.7,1.9,1.7,1.9c0.1,0,0.2,0,0.3,0h1.5V356h-12.5v-35.6h1.5c1-0.1,1.7-0.9,1.7-1.9c-0.1-0.9-0.8-1.6-1.7-1.7h-19.3
			c-1-0.1-1.9,0.7-1.9,1.7c-0.1,1,0.7,1.9,1.7,1.9c0.1,0,0.2,0,0.3,0h1.5V356h-12.6v-36h1.5c1-0.1,1.7-0.9,1.7-1.9
			c-0.1-0.9-0.8-1.6-1.7-1.7h-19.2c-1,0.1-1.7,0.9-1.7,1.9c0.1,0.9,0.8,1.6,1.7,1.7h1.5v36h-13v44c0,6.3,5.1,11.3,11.4,11.4h77.3
			c6.3,0,11.3-5.1,11.4-11.4v-44H604.2z M591.5,320.4h9.1v48h-9.1V320.4z M600.5,368.4v19.7c0,2.5-2,4.5-4.5,4.5
			c-2.5,0-4.5-2-4.5-4.5v-16v-3.7 M562.6,320.4h9.1v19.2h-9.1V320.4L562.6,320.4z M571.7,339.6v48.5c0,2.5-2,4.5-4.5,4.5
			c-2.5,0-4.5-2-4.5-4.5v-44.9v-3.7 M533.7,372.3 M542.8,372.3 M533.8,375.9l0-55.9h0h9v55.9 M542.8,375.9 M533.8,375.9
			 M542.8,375.9v12.3c0,2.5-2,4.5-4.5,4.5c-0.1,0-0.1,0-0.2,0c-2.5-0.2-4.4-2.3-4.3-4.7v-12.1l0,0 M613.5,400.1
			c0,4.3-3.5,7.7-7.8,7.8h-77.3c-4.3,0-7.7-3.5-7.8-7.8v-40.4h9.4V388c-0.1,4.4,3.4,8.1,7.8,8.3h0.4c4.5,0,8.2-3.6,8.2-8.1
			c0,0,0,0,0,0v-28.5H559v28.5c0,4.5,3.7,8.2,8.2,8.2c4.5,0,8.2-3.7,8.2-8.2l0,0v-28.5h12.6v28.5c0,4.5,3.7,8.2,8.2,8.2
			c4.5,0,8.2-3.7,8.2-8.2l0,0v-28.5h9.3L613.5,400.1L613.5,400.1z"/>
		<rect id="lab-tube_x5F_left-line" x="532" y="373.4" class="st0" width="12.7" height="3.6"/>
		<rect id="lab-tube_x5F_right-line" x="590.2" y="363.1" class="st0" width="12.7" height="3.6"/>
		<rect id="lab-tube_x5F_mid-line" x="560.8" y="335.7" class="st0" width="12.7" height="3.6"/>
	</g>
	<path class="st1" d="M143.5,258.2c0-5.7-4.4-11-12.5-14.9c-0.5-0.2-1.1-0.5-1.6-0.7c0.1-0.6,0.1-1.2,0.2-1.8
		c0.7-8.9-1.7-15.4-6.7-18.3c-1.8-1-3.9-1.6-6-1.5c-4.5,0-9.6,2.1-14.7,5.9c-5-3.8-10.1-5.9-14.6-5.9c-2.1,0-4.2,0.5-6,1.5
		c-5,2.9-7.3,9.4-6.7,18.3c0,0.6,0.1,1.1,0.2,1.7c-8.7,3.8-14.1,9.4-14.1,15.7c0,6.3,5.4,11.9,14.1,15.7c-0.1,0.6-0.1,1.1-0.2,1.7
		c-0.7,8.9,1.7,15.4,6.7,18.3c1.8,1,3.9,1.6,6,1.5c4.5,0,9.6-2.1,14.7-5.9c5.1,3.8,10.2,5.9,14.7,5.9c2.1,0,4.2-0.5,6-1.5
		c5.5-3.2,7.6-10.6,6.5-20C138.1,270.2,143.5,264.6,143.5,258.2z M116.9,224.2c1.5,0,3,0.4,4.4,1.1c3.9,2.2,5.7,7.7,5.1,15.3
		c0,0.3,0,0.5-0.1,0.8c-4.1-1.4-8.3-2.4-12.6-3c-2.7-3.4-5.6-6.6-8.9-9.4C109.1,225.9,113.3,224.2,116.9,224.2z M84.4,268.6
		c1.2,2,2.4,4,3.7,5.9c-3.2-0.6-6.4-1.5-9.4-2.6c0.6-3.2,1.4-6.4,2.5-9.5C82.1,264.5,83.2,266.5,84.4,268.6z M78.6,244.6
		c3.1-1.1,6.2-2,9.4-2.6c-1.3,1.9-2.5,3.8-3.7,5.9c-1.2,2-2.3,4.1-3.2,6.2C80,251,79.2,247.8,78.6,244.6L78.6,244.6z M87.1,267
		c-1.6-2.8-3.1-5.8-4.4-8.8c2.6-6,5.8-11.7,9.8-16.9c3.2-0.4,6.5-0.6,9.8-0.6c3.3,0,6.5,0.2,9.8,0.6c2,2.6,3.8,5.3,5.4,8.2
		c1.6,2.8,3.1,5.8,4.4,8.8c-2.6,6-5.8,11.7-9.8,16.9c-6.5,0.8-13.1,0.8-19.6,0C90.5,272.5,88.7,269.8,87.1,267z M120.2,268.6
		c1.2-2,2.2-4.1,3.2-6.1c1.1,3.1,1.9,6.2,2.5,9.4c-3.1,1.1-6.2,2-9.4,2.6C117.8,272.6,119,270.6,120.2,268.6L120.2,268.6z
		 M120.2,247.9c-1.2-2.1-2.4-4-3.7-5.9c3.2,0.6,6.4,1.5,9.5,2.6c-0.6,3.2-1.4,6.4-2.5,9.5C122.5,252,121.4,249.9,120.2,247.9
		L120.2,247.9z M109.3,237.9c-2.3-0.2-4.6-0.3-7-0.3s-4.7,0.1-7,0.3c2.1-2.5,4.5-4.8,7-6.9C104.8,233,107.1,235.3,109.3,237.9
		L109.3,237.9z M83.3,225.3c1.3-0.7,2.8-1.1,4.4-1.1c3.6,0,7.8,1.7,12.1,4.8c-3.3,2.8-6.3,6-8.9,9.4c-4.3,0.6-8.5,1.6-12.6,3
		c0-0.2-0.1-0.5-0.1-0.8C77.6,232.9,79.4,227.5,83.3,225.3L83.3,225.3z M64.3,258.3c0-4.8,4.4-9.2,11.4-12.4c0.8,4.2,2,8.4,3.7,12.4
		c-1.6,4-2.9,8.1-3.7,12.4C68.6,267.4,64.2,263,64.3,258.3L64.3,258.3z M87.6,292.3c-1.5,0-3-0.4-4.4-1.1c-3.9-2.2-5.7-7.7-5.1-15.3
		c0-0.2,0-0.5,0.1-0.8c4.1,1.4,8.3,2.4,12.6,3c2.7,3.4,5.6,6.6,8.9,9.4C95.4,290.6,91.2,292.3,87.6,292.3z M95.3,278.6
		c2.3,0.2,4.6,0.3,7,0.3c2.4,0,4.7-0.1,7-0.3c-2.1,2.5-4.5,4.8-7,6.9C99.8,283.5,97.4,281.1,95.3,278.6z M121.3,291.2
		c-1.3,0.7-2.8,1.1-4.4,1.1c-3.6,0-7.8-1.7-12.1-4.8c3.3-2.8,6.3-6,8.9-9.4c4.3-0.6,8.5-1.6,12.6-3
		C127,282.8,125.4,288.8,121.3,291.2L121.3,291.2z M128.9,270.6c-0.8-4.2-2-8.4-3.7-12.4c1.6-4,2.9-8.2,3.7-12.4l0.7,0.3
		c6.9,3.3,10.7,7.6,10.7,12.1C140.3,263,135.9,267.4,128.9,270.6L128.9,270.6z"/>
	<path class="st1" d="M102.3,268.4c5.6,0,10.1-4.5,10.1-10.1c0-5.6-4.5-10.1-10.1-10.1c-5.6,0-10.1,4.5-10.1,10.1
		C92.1,263.8,96.7,268.4,102.3,268.4z M102.3,251.2c3.9,0,7,3.1,7,7c0,3.9-3.1,7-7,7s-7-3.1-7-7C95.3,254.4,98.4,251.2,102.3,251.2
		L102.3,251.2z"/>
	<path class="st1" d="M175.9,301.7c-3.9,0.1-7.1,3.3-7,7.3c0.1,3.9,3.3,7.1,7.3,7c0.6,0,1.3-0.1,1.9-0.3l0.5,0.8
		c-2.9,2.7-3.1,7.2-0.4,10.1c2.7,2.9,7.2,3.1,10.1,0.4c1.1-1,1.8-2.3,2.1-3.7h1.3c0.9,3.8,4.7,6.2,8.6,5.4c3.8-0.9,6.2-4.7,5.4-8.6
		c-0.3-1.5-1.1-2.8-2.3-3.8l0.4-0.8c3.8,1.2,7.8-0.9,8.9-4.7c0.1-0.2,0.1-0.5,0.2-0.7h1c0.8,3.9,4.5,6.4,8.4,5.7
		c3.9-0.8,6.4-4.5,5.7-8.4c-0.8-3.9-4.5-6.4-8.4-5.7c-2.9,0.6-5.1,2.8-5.7,5.7h-1c-0.7-3.9-4.5-6.4-8.3-5.7
		c-0.3,0.1-0.6,0.1-0.9,0.2l-0.5-0.9c2.9-2.7,3.1-7.2,0.4-10c-0.2-0.2-0.4-0.4-0.6-0.6l0.9-1.5c3.7,1.4,7.8-0.5,9.2-4.2
		c0.1-0.3,0.2-0.7,0.3-1h0.8c0.8,3.9,4.5,6.4,8.4,5.7c3.9-0.8,6.4-4.5,5.7-8.4c-0.8-3.9-4.5-6.4-8.4-5.7c-2.9,0.6-5.1,2.8-5.7,5.7
		h-0.7c-0.7-3.9-4.4-6.5-8.2-5.8c-0.5,0.1-0.9,0.2-1.4,0.4l-0.5-0.9c3-2.5,3.5-7,1-10c-2.5-3-7-3.5-10-1c-3,2.5-3.5,7-1,10
		c1.8,2.2,4.8,3.1,7.6,2.3l0.6,1.1c-2.9,2.7-3,7.2-0.3,10.1c0.1,0.1,0.3,0.3,0.4,0.4l-0.9,1.6c-3.7-1.3-7.8,0.7-9,4.4
		c-0.1,0.3-0.2,0.6-0.2,0.8h-1.1c-0.7-3.9-4.5-6.4-8.3-5.7c-3.9,0.7-6.4,4.5-5.7,8.3c0.3,1.6,1.2,3.1,2.5,4.2l-0.5,0.9
		C177.4,301.8,176.7,301.7,175.9,301.7z M221,277.8c2.4,0,4.4,2,4.4,4.4s-2,4.4-4.4,4.4c-2.1,0-4-1.5-4.3-3.6c0.3-0.4,0.3-1,0-1.4
		C217,279.5,218.8,277.8,221,277.8L221,277.8z M194.1,269.2c0-2.4,2-4.4,4.4-4.4s4.4,2,4.4,4.4c0,1.4-0.6,2.7-1.7,3.5
		c-0.6-0.1-1.1,0.2-1.4,0.7c-2.3,0.7-4.8-0.5-5.6-2.9C194.2,270.1,194.1,269.6,194.1,269.2L194.1,269.2z M210.6,282.2
		c0,2.4-2,4.4-4.4,4.4s-4.4-2-4.4-4.4c0-2.4,2-4.4,4.4-4.4C208.7,277.8,210.6,279.8,210.6,282.2z M171.5,308.9c0-2.4,2-4.4,4.4-4.4
		c0.7,0,1.4,0.2,2,0.5l0.2,0.1l0.2,0.1l0.1,0.1l0.3,0.2l0,0l0.3,0.2l0.1,0.1l0.2,0.3l0,0c0.1,0.1,0.2,0.2,0.2,0.3l0,0
		c0.1,0.1,0.1,0.2,0.2,0.3l0,0c0.1,0.1,0.1,0.2,0.2,0.4l0,0c0,0.1,0.1,0.2,0.1,0.3v0.1c0,0.1,0.1,0.2,0.1,0.4l0,0
		c0,0.1,0,0.2,0.1,0.4v0.1c0,0.1,0,0.3,0,0.4s0,0.3,0,0.4v0.1c0,0.1,0,0.2-0.1,0.4l0,0c0,0.1-0.1,0.3-0.1,0.4v0.1
		c0,0.1-0.1,0.2-0.1,0.3l0,0c-0.1,0.1-0.1,0.2-0.2,0.4l0,0c-0.1,0.1-0.1,0.2-0.2,0.3l0,0c-0.1,0.1-0.2,0.2-0.2,0.3l0,0l-0.2,0.3
		l-0.1,0.1l-0.3,0.2l0,0l-0.3,0.2l-0.1,0.1l-0.2,0.1l-0.2,0.1c-2.2,1.1-4.8,0.3-6-1.9C171.7,310,171.6,309.4,171.5,308.9z
		 M183.3,326.2c-2.4,0-4.4-2-4.4-4.4c0-1.8,1.1-3.5,2.8-4.1h0.1l0.2-0.1l0.2-0.1h0.2h0.3h0.1h0.4h0.4c2.3,0.2,4,2.1,4,4.4l0,0
		c0,0,0,0.1,0,0.1s0,0,0,0C187.7,324.4,185.7,326.2,183.3,326.2L183.3,326.2z M198.6,326.2c-2.3,0-4.3-1.8-4.4-4.2l0,0
		c0-0.1,0-0.1,0-0.2c0-0.1,0-0.1,0-0.2s0-0.1,0-0.2s0-0.1,0-0.2s0-0.1,0-0.2s0-0.1,0-0.2s0-0.2,0.1-0.2l0.1-0.2
		c0-0.1,0.1-0.2,0.1-0.2l0.1-0.1l0.1-0.2l0.1-0.1l0.1-0.2l0.1-0.1l0.2-0.3l0.1-0.1l0.2-0.2l0.1-0.1l0.2-0.2l0.1-0.1l0.2-0.2l0.1-0.1
		l0.3-0.2l0.1,0l0.3-0.1h0.1l0.3-0.1h0.1l0.3-0.1l0.4-0.1h0.1h0.4c0.2,0,0.4,0,0.5,0h0.1l0.4,0.1h0.1c2.3,0.8,3.6,3.3,2.8,5.6
		C201.8,324.9,200.3,326,198.6,326.2L198.6,326.2z M220.8,304.4c2.4,0,4.4,2,4.4,4.4c0,2.4-2,4.4-4.4,4.4c-2.4,0-4.4-2-4.4-4.4
		C216.4,306.3,218.4,304.4,220.8,304.4z M210.3,308.8c0,2.4-2,4.4-4.4,4.4c-0.7,0-1.4-0.2-2.1-0.5l-0.1-0.1l-0.2-0.1l-0.1-0.1
		c-0.2-0.1-0.4-0.3-0.6-0.5l0,0l-0.3-0.3l0,0c-0.1-0.1-0.2-0.2-0.2-0.3l0,0c-0.1-0.1-0.1-0.2-0.2-0.3l0,0c-0.1-0.1-0.1-0.2-0.2-0.4
		l0,0c0-0.1-0.1-0.2-0.1-0.3v-0.1c0-0.1-0.1-0.2-0.1-0.4l0,0c0-0.1,0-0.2-0.1-0.4v-0.1c0-0.1,0-0.3,0-0.4s0-0.3,0-0.4v-0.1
		c0-0.1,0-0.2,0.1-0.4V308c0-0.1,0.1-0.2,0.1-0.3v-0.1c0-0.1,0.1-0.2,0.1-0.3l0,0c0-0.1,0.1-0.2,0.2-0.3v-0.1
		c0.1-0.1,0.1-0.2,0.2-0.3l0,0c0.1-0.1,0.2-0.2,0.2-0.3l0,0l0.3-0.3l0,0l0.3-0.3l0,0l0.3-0.2l0,0c2-1.4,4.8-0.9,6.1,1.1
		C209.9,307.2,210.2,308,210.3,308.8L210.3,308.8z M198.3,291.4c2.4,0,4.4,2,4.4,4.5c0,1.8-1.1,3.4-2.8,4.1h-0.1l-0.2,0.1l-0.3,0.1
		H199h-0.3h-0.1h-0.4h-0.4h-0.1h-0.3h-0.2l-0.2-0.1l-0.1-0.1l-0.2-0.1l-0.1-0.1l-0.2-0.1l-0.1-0.1l-0.2-0.1l-0.1-0.1l-0.2-0.2
		l-0.1-0.1l-0.2-0.2l-0.1-0.1l-0.2-0.2l-0.1-0.1l-0.2-0.2l-0.1-0.1l-0.1-0.2l-0.1-0.1l-0.1-0.2l-0.1-0.2c0-0.1-0.1-0.2-0.1-0.2
		s0-0.1,0-0.2s0-0.2-0.1-0.2s0-0.1,0-0.2s0-0.2,0-0.2s0-0.1,0-0.2s0-0.2,0-0.2s0-0.1,0-0.1l0,0C194,293.4,195.9,291.5,198.3,291.4
		L198.3,291.4z M183.1,291.3c2.4,0,4.4,2,4.4,4.4l0,0l0,0c0,2.3-1.7,4.1-4,4.4h-0.4c-0.2,0-0.3,0-0.5,0h-0.1l-0.4-0.1h-0.2l-0.3-0.1
		l-0.2-0.1l-0.3-0.2c-2.2-1.1-3.1-3.7-2.1-5.9C179.8,292.2,181.4,291.2,183.1,291.3L183.1,291.3z M181.1,302.5l0.5,0.1h0.2l0.4,0.1
		h0.2c0.2,0,0.4,0,0.6,0s0.5,0,0.7,0h0.2l0.4-0.1l0.3-0.1l0.3-0.1l0.3-0.1l0.3-0.1l0.4-0.1l0.2-0.1l0.4-0.2l0.1-0.1
		c0.8-0.5,1.5-1.1,2.1-1.9l0.1-0.1c0.1-0.1,0.2-0.3,0.3-0.4l0.1-0.1c0.1-0.1,0.2-0.3,0.2-0.4l0.1-0.1c0.1-0.1,0.1-0.3,0.2-0.4
		l0.1-0.2c0.1-0.1,0.1-0.3,0.1-0.4v-0.2c0-0.1,0.1-0.3,0.1-0.5h1.1v0.1c0,0.1,0,0.2,0.1,0.3s0.1,0.3,0.1,0.4l0.1,0.3
		c0,0.1,0.1,0.2,0.1,0.4l0.1,0.2l0.2,0.4l0.1,0.2l0.2,0.4l0.1,0.2c0.1,0.1,0.2,0.2,0.3,0.4l0.1,0.1c0.1,0.2,0.3,0.3,0.4,0.5l0.1,0.1
		l0.4,0.4l0.2,0.1l0.3,0.2l0.2,0.1l0.3,0.2l0.2,0.1l0.4,0.2l0.2,0.1l0.4,0.1l0.3,0.1l0.4,0.1l0.3,0.1l0.4,0.1h0.2c0.2,0,0.5,0,0.7,0
		s0.5,0,0.7,0h0.3l0.4-0.1l0.4-0.1l0.3-0.1l0.4-0.1h0.1l0.5,0.8c-0.3,0.3-0.6,0.6-0.9,0.9l0,0c-0.4,0.5-0.7,1.1-1,1.7v0.1
		c-0.1,0.2-0.1,0.4-0.2,0.6v0.1c-0.1,0.2-0.1,0.4-0.1,0.6v0.1c0,0.2-0.1,0.4-0.1,0.6v0.1c0,0.2,0,0.5,0,0.7s0,0.5,0,0.7v0.1
		c0,0.2,0.1,0.4,0.1,0.6v0.1c0,0.2,0.1,0.4,0.2,0.6v0.1c0.4,1.3,1.2,2.5,2.3,3.4L201,315l-0.2-0.1l-0.3-0.1l-0.3-0.1l-0.3-0.1
		l-0.4-0.1h-0.3c-0.2,0-0.4,0-0.7,0s-0.5,0-0.7,0h-0.2l-0.4,0.1l-0.3,0.1l-0.4,0.1l-0.3,0.1l-0.4,0.1l-0.3,0.1l-0.4,0.2l-0.2,0.1
		l-0.3,0.2l-0.2,0.1l-0.3,0.2l-0.2,0.2l-0.3,0.3l-0.2,0.1c-0.1,0.1-0.3,0.3-0.4,0.4l0,0c-0.1,0.2-0.3,0.3-0.4,0.5l-0.1,0.2
		c-0.1,0.1-0.2,0.2-0.2,0.4l-0.1,0.2c-0.1,0.1-0.1,0.2-0.2,0.4l-0.1,0.2c0,0.1-0.1,0.2-0.1,0.4l-0.1,0.3c0,0.1-0.1,0.3-0.1,0.4
		c0,0.1,0,0.2-0.1,0.3s0,0.1,0,0.2h-1.2c0,0,0-0.1,0-0.2s0-0.2-0.1-0.3s-0.1-0.2-0.1-0.4l-0.1-0.3c0-0.1-0.1-0.2-0.1-0.4l-0.1-0.2
		c-0.1-0.1-0.1-0.2-0.2-0.4l-0.1-0.2c-0.1-0.1-0.1-0.2-0.2-0.4l-0.1-0.2c-0.1-0.2-0.2-0.4-0.4-0.5l0,0c-0.1-0.1-0.3-0.3-0.4-0.4
		l-0.2-0.1l-0.3-0.3l-0.2-0.2l-0.3-0.2l-0.2-0.1l-0.3-0.2l-0.2-0.1l-0.4-0.2l-0.3-0.1l-0.4-0.1l-0.3-0.1l-0.4-0.1l-0.3-0.1l-0.4-0.1
		h-0.2c-0.2,0-0.5,0-0.7,0s-0.5,0-0.7,0h-0.3l-0.4,0l-0.4,0.1l-0.3,0.1L181,315h-0.1l-0.4-0.7h0.1l0,0c1.1-0.9,1.8-2,2.2-3.3v-0.1
		c0.1-0.2,0.1-0.4,0.2-0.6v-0.1c0-0.2,0.1-0.4,0.1-0.6v-0.1c0-0.2,0-0.5,0-0.7s0-0.5,0-0.7v-0.1c0-0.2-0.1-0.4-0.1-0.6v-0.1
		c0-0.2-0.1-0.4-0.2-0.6v-0.1c-0.4-1.3-1.2-2.5-2.3-3.4l0.5-0.8l0,0L181.1,302.5z"/>
	<path id="lab-tube-2" class="st0" d="M503.7,395.8L483.5,361v-34.3c4-0.1,7.2-3.4,7.1-7.3c-0.1-4-3.4-7.2-7.3-7.1H456
		c-4-0.1-7.3,3.1-7.3,7.1c-0.1,4,3.1,7.3,7.1,7.3V361l-20.1,34.9c-3,5.2-1.2,11.9,4,14.9c1.7,1,3.6,1.5,5.5,1.5h49.2
		c6,0,10.9-4.9,11-10.9C505.2,399.4,504.6,397.5,503.7,395.8z M452.9,319.5c0-1.7,1.4-3.1,3.1-3.1h27.3c1.7,0,3.1,1.4,3.1,3.1
		c0,1.7-1.4,3.1-3.1,3.1c0,0,0,0,0,0H456C454.3,322.5,452.9,321.1,452.9,319.5L452.9,319.5z M459.9,362.1v-35.4h19.6v35.4l6.6,11.5
		h-32.9L459.9,362.1z M500.1,404.7c-1.2,2.1-3.5,3.4-5.9,3.4H445c-3.8,0-6.8-3-6.8-6.8c0-1.2,0.3-2.4,0.9-3.4l11.7-20.2h37.6
		l11.7,20.2C501.3,400,501.3,402.6,500.1,404.7L500.1,404.7z"/>
	<circle id="lab-tube-cycle-3" class="st0" cx="471.8" cy="367.7" r="2.2"/>
	<path id="lab-tube-cycle-2" class="st0" d="M467.9,350c-3.5,0-6.3,2.8-6.3,6.3s2.8,6.3,6.3,6.3s6.3-2.8,6.3-6.3c0,0,0,0,0,0
		C474.1,352.8,471.3,350,467.9,350z M467.9,358.4c-1.2,0-2.1-1-2.1-2.1c0-1.2,1-2.1,2.1-2.1c1.2,0,2.1,1,2.1,2.1l0,0
		C470,357.4,469.1,358.4,467.9,358.4L467.9,358.4z"/>
	<path id="lab-tube-cycle-1" class="st0" d="M470.7,332.7c-3.9,0-7,3.1-7,7s3.1,7,7,7s7-3.1,7-7S474.6,332.7,470.7,332.7z
		 M470.7,342.5c-1.6,0-2.8-1.3-2.8-2.8s1.3-2.8,2.8-2.8s2.8,1.3,2.8,2.8v0C473.5,341.2,472.3,342.5,470.7,342.5z"/>
</g>
<g id="lean-mid">
	<path class="st0" d="M481.2,119.4c-1.2-2.2-4-3-6.2-1.8c-2,1.1-2.9,3.6-2,5.7l-6.3,3.7c-1.6-2-4.4-2.3-6.4-0.7
		c-0.2,0.2-0.4,0.4-0.6,0.6l-6.4-3.7c0.8-2.4-0.4-5-2.8-5.8c-2.4-0.8-5,0.4-5.8,2.8c-0.3,1-0.3,2,0,3l-6.4,3.7
		c-1.6-1.9-4.5-2.1-6.4-0.5c-0.1,0.1-0.1,0.1-0.2,0.2l-6.7-3.9c0.6-2.4-0.8-4.9-3.3-5.5c-0.1,0-0.2,0-0.3-0.1v-7.3
		c2.5-0.5,4.1-2.9,3.6-5.3c-0.5-2.5-2.9-4.1-5.3-3.6c-0.9,0.2-1.7,0.6-2.4,1.3l-6.5-3.8c0.7-2.4-0.8-4.9-3.2-5.6s-4.9,0.8-5.6,3.2
		c-0.2,0.8-0.2,1.6,0,2.4l-6.5,3.8c-1.8-1.8-4.7-1.8-6.4,0s-1.8,4.7,0,6.4c0.6,0.6,1.4,1.1,2.3,1.2v7.3c-2.5,0.5-4.1,2.9-3.6,5.3
		c0,0.1,0,0.2,0.1,0.2l-6.5,3.7c-1.8-1.8-4.7-1.7-6.4,0.1c-1.8,1.8-1.7,4.7,0.1,6.4c1.8,1.8,4.7,1.7,6.4-0.1c1.3-1.3,1.7-3.3,0.9-5
		l6.2-3.6c1.5,2,4.3,2.5,6.4,1c0.4-0.3,0.7-0.6,1-0.9l6.3,3.6c-1,2.3,0.1,5,2.4,6c2.3,1,5-0.1,6-2.4c0.5-1.1,0.5-2.4,0-3.6l6.3-3.6
		c1.5,2,4.4,2.4,6.4,0.9c0.4-0.3,0.7-0.6,0.9-0.9l6.5,3.8c-1,2.3,0.1,5,2.4,6c0.3,0.1,0.6,0.2,0.9,0.3v7.4c-2.5,0.5-4.1,2.9-3.6,5.4
		c0.5,2.5,2.9,4.1,5.4,3.6c1-0.2,1.9-0.7,2.6-1.5l6.4,3.7c-0.8,2.4,0.4,5,2.8,5.8c2.4,0.8,5-0.4,5.8-2.8c0.3-1,0.3-2,0-3l6.4-3.7
		c1.7,1.9,4.5,2.1,6.4,0.5c1.9-1.7,2.1-4.5,0.5-6.4c-0.7-0.8-1.6-1.3-2.6-1.5v-7.4c2.5-0.5,4.1-2.9,3.6-5.3c0-0.2-0.1-0.3-0.1-0.5
		l6.5-3.7c1.7,1.9,4.6,2,6.4,0.3C482,123.6,482.3,121.2,481.2,119.4z M409.6,126.5c-1.8-1.8-4.6-1.8-6.4,0l-6.5-3.8
		c0.6-2.4-0.8-4.9-3.3-5.6c-0.1,0-0.2,0-0.3-0.1v-7.3c2.5-0.5,4.1-2.9,3.6-5.3c-0.1-0.3-0.2-0.6-0.3-0.9l6.3-3.6
		c1.5,2,4.4,2.4,6.4,0.9c0.3-0.3,0.7-0.6,0.9-0.9l6.3,3.6c-1,2.3,0.1,5,2.4,6c0.3,0.1,0.6,0.2,0.9,0.3v7.3c-2.5,0.5-4.1,2.9-3.6,5.3
		c0,0.1,0,0.2,0.1,0.3L409.6,126.5z M452.5,151.3c-1.6-1.9-4.5-2.1-6.4-0.5c-0.2,0.1-0.3,0.3-0.5,0.5l-6.4-3.7
		c0.8-2.4-0.4-5-2.8-5.8c-0.2-0.1-0.5-0.1-0.7-0.2v-7.4c2.5-0.5,4.1-2.8,3.6-5.3c0-0.2-0.1-0.5-0.2-0.7l6.4-3.7
		c1.6,1.9,4.5,2.1,6.4,0.5c0.2-0.1,0.3-0.3,0.5-0.5l6.4,3.7c-0.8,2.4,0.4,5,2.8,5.8c0.2,0.1,0.5,0.1,0.7,0.2v7.4
		c-2.5,0.5-4.1,2.8-3.6,5.3c0,0.2,0.1,0.5,0.2,0.7L452.5,151.3z"/>
	<path class="st2" d="M282.9,292.7v61.7c0,14.7,12,26.5,26.6,26.5c0,0,0,0,0,0h2.9c7,21.2,29.9,32.8,51.1,25.8
		c12.2-4,21.7-13.6,25.8-25.8h6.7c14.7,0,26.6-11.8,26.6-26.5c0,0,0,0,0,0v-61.7H282.9z"/>
	<path class="st3" d="M428.7,294.9c0,4-4,7.2-8.9,7.2H286.5c-4.9,0-8.9-3.2-8.9-7.2l0,0c0-4,4-7.2,8.9-7.2h133.3
		C424.8,287.6,428.7,290.9,428.7,294.9L428.7,294.9z"/>
	<path class="st3" d="M428.7,324.5c0,4-4,7.2-8.9,7.2H286.5c-4.9,0-8.9-3.2-8.9-7.2l0,0c0-4,4-7.2,8.9-7.2h133.3
		C424.8,317.2,428.7,320.5,428.7,324.5L428.7,324.5z"/>
	<path class="st3" d="M428.7,354c0,4-4,7.2-8.9,7.2H286.5c-4.9,0-8.9-3.2-8.9-7.2l0,0c0-4,4-7.2,8.9-7.2h133.3
		C424.8,346.8,428.7,350,428.7,354L428.7,354z"/>
	<path class="st0" d="M373.1,98.5c0-3-2-5.8-5.4-8.2c0.5-2.2-1-4.3-3.1-4.8c-1.4-0.3-2.8,0.2-3.8,1.2c-1.4-0.6-2.9-1.1-4.5-1.5
		c2.5-10.3,1.6-18.5-3.2-21.2c-4.8-2.7-12.3,0.6-19.9,7.9c-1.6-1.5-3.2-2.9-4.9-4.2c0.4-2.2-1.1-4.3-3.3-4.7
		c-1.2-0.2-2.4,0.1-3.3,0.9c-3.2-1.2-6.1-1.3-8.4,0c-4.8,2.8-5.6,10.9-3.1,21.2c-10.2,3-16.8,7.8-16.8,13.4
		c0,5.5,6.6,10.4,16.8,13.3c-0.3,1-0.5,2.1-0.7,3.1c-2.2,0.3-3.7,2.4-3.4,4.6c0.2,1.5,1.3,2.7,2.7,3.2c0.1,5,1.6,8.6,4.5,10.3
		c4.8,2.8,12.3-0.6,19.9-7.9c7.7,7.3,15.2,10.6,20,7.9s5.6-10.9,3.1-21.2C366.5,108.9,373.1,104,373.1,98.5z M351.5,67
		c3.7,2.1,4.2,8.8,2,17.4c-3.6-0.9-7.3-1.5-11.1-1.8c-2.1-3-4.5-5.9-7-8.6C341.8,67.8,347.8,64.9,351.5,67z M344.7,105.2
		c-1.2,2.2-2.6,4.2-3.9,6.2c-2.5,0.2-5,0.3-7.6,0.3s-5.1-0.1-7.6-0.3c-1.3-2-2.6-4-3.9-6.2c-1.2-2.2-2.4-4.3-3.4-6.5
		c1.1-2.2,2.2-4.5,3.5-6.7s2.6-4.4,4-6.4c2.4-0.2,4.8-0.3,7.3-0.3s5,0.1,7.3,0.3c1.4,2,2.7,4.2,4,6.4s2.5,4.5,3.5,6.7
		C347.1,100.8,346,103,344.7,105.2z M349.8,102.3c1,2.4,1.9,4.9,2.7,7.4c-2.6,0.6-5.1,1-7.7,1.3c0.9-1.4,1.8-2.8,2.6-4.3
		C348.3,105.3,349,103.8,349.8,102.3L349.8,102.3z M333.3,121c-1.8-2-3.6-4.1-5.2-6.2c1.7,0.1,3.4,0.1,5.2,0.1s3.5-0.1,5.2-0.1
		C336.8,116.9,335.1,119,333.3,121z M321.7,111c-2.6-0.3-5.2-0.7-7.7-1.3c0.8-2.5,1.7-5,2.7-7.4c0.8,1.5,1.5,2.9,2.4,4.4
		C319.9,108.2,320.8,109.6,321.7,111L321.7,111z M316.6,95c-1.1-2.5-2-5-2.8-7.6c2.6-0.6,5.3-1.1,8-1.4c-0.9,1.4-1.8,2.9-2.7,4.4
		C318.2,91.9,317.4,93.5,316.6,95z M333.2,76.3c1.8,1.9,3.4,3.9,5,6c-1.6-0.1-3.3-0.1-5-0.1s-3.4,0.1-5,0.1
		C329.8,80.2,331.5,78.2,333.2,76.3L333.2,76.3z M347.4,90.4c-0.9-1.5-1.8-3-2.7-4.4c2.7,0.3,5.4,0.8,8,1.4
		c-0.8,2.6-1.7,5.1-2.8,7.6C349.1,93.4,348.3,91.9,347.4,90.4z M314.9,67.1c1.6-0.8,3.6-0.9,5.3-0.3c0,0.1,0,0.2,0,0.3
		c0,2.2,1.8,4.1,4,4.1c0.9,0,1.8-0.3,2.5-0.8c1.5,1.2,3,2.4,4.3,3.8c-2.5,2.7-4.9,5.6-7,8.6c-3.7,0.4-7.4,1-11,1.8
		C310.8,75.9,311.3,69.2,314.9,67.1L314.9,67.1z M296.8,98.5c0-4.2,5.5-8,14.1-10.4c1.1,3.6,2.4,7.1,4,10.5
		c-1.5,3.4-2.8,6.8-3.9,10.4C302.4,106.6,296.8,102.8,296.8,98.5z M315.1,130.2c-2.1-1.2-3.1-3.9-3.3-7.5c2-0.9,2.9-3.3,2-5.4
		c-0.3-0.7-0.8-1.2-1.4-1.6c0.2-1,0.4-2,0.7-3c3.6,0.8,7.3,1.4,10.9,1.8c2.2,3,4.5,5.9,7.1,8.7C324.8,129.4,318.8,132.3,315.1,130.2
		L315.1,130.2z M351.4,130.2c-3.7,2.1-9.7-0.8-16.1-7c2.6-2.7,4.9-5.6,7.1-8.7c3.7-0.3,7.3-0.9,10.9-1.8
		C355.6,121.3,355.1,128,351.4,130.2L351.4,130.2z M355.5,108.9c-1.1-3.5-2.4-7-3.9-10.4c1.6-3.4,2.9-6.9,3.9-10.5
		c1.5,0.4,2.9,0.9,4.2,1.4c0,0,0,0.1,0,0.1c0,2.2,1.8,4.1,4,4.1c0.9,0,1.7-0.3,2.4-0.8c2.2,1.7,3.5,3.6,3.5,5.7
		C369.7,102.7,364.1,106.5,355.5,108.9L355.5,108.9z"/>
	<circle class="st0" cx="333.2" cy="98.6" r="5.9"/>
	<path class="st0" d="M261.9,40.4L238.2,64c-1.2,1.2-1.2,3.1,0,4.2c0,0,0,0,0,0l34.2,34.2c1.2,1.2,3.1,1.2,4.2,0c0,0,0,0,0,0
		l23.7-23.7c1.2-1.2,1.2-3.1,0-4.2c0,0,0,0,0,0l-34.2-34.2C265,39.2,263.1,39.2,261.9,40.4C261.9,40.3,261.9,40.4,261.9,40.4z
		 M276.8,91.3c0.7,0.7,0.7,1.7,0,2.4l-2.5,2.5c-0.7,0.7-1.7,0.7-2.4,0l-2.5-2.5c-0.7-0.7-0.7-1.7,0-2.4l2.5-2.5
		c0.7-0.7,1.7-0.7,2.4,0L276.8,91.3z M269.4,83.9c0.7,0.7,0.7,1.7,0,2.4l-2.5,2.5c-0.7,0.7-1.7,0.7-2.4,0l-2.5-2.5
		c-0.7-0.7-0.7-1.7,0-2.4l2.5-2.5c0.7-0.7,1.7-0.7,2.4,0L269.4,83.9z M262.4,76.9c0.7,0.7,0.7,1.7,0,2.4l-2.5,2.5
		c-0.7,0.7-1.7,0.7-2.4,0l-2.5-2.5c-0.7-0.7-0.7-1.7,0-2.4l2.5-2.5c0.7-0.7,1.7-0.7,2.4,0L262.4,76.9z M293.5,74.5
		c0.7,0.7,0.7,1.7,0,2.4l-11,11c-0.7,0.7-1.7,0.7-2.4,0l-2.5-2.5c-0.7-0.7-0.7-1.7,0-2.4l11-11c0.7-0.7,1.7-0.7,2.4,0L293.5,74.5z
		 M270.5,75.3l2.5-2.5c0.7-0.7,1.7-0.7,2.4,0l2.5,2.5c0.7,0.7,0.7,1.7,0,2.4l-2.5,2.5c-0.7,0.7-1.7,0.7-2.4,0l-2.5-2.5
		C269.8,77.1,269.8,76,270.5,75.3C270.4,75.3,270.4,75.3,270.5,75.3L270.5,75.3z M266,73.2l-2.5-2.5c-0.7-0.7-0.7-1.7,0-2.4l2.5-2.5
		c0.7-0.7,1.7-0.7,2.4,0l2.5,2.5c0.7,0.7,0.7,1.7,0,2.4l-2.5,2.5C267.8,73.9,266.7,73.9,266,73.2C266,73.3,266,73.3,266,73.2
		L266,73.2z M286.4,66.9c0.7,0.7,0.7,1.7,0,2.4l-2.5,2.5c-0.7,0.7-1.7,0.7-2.4,0l-2.5-2.5c-0.7-0.7-0.7-1.7,0-2.4l2.5-2.5
		c0.7-0.7,1.7-0.7,2.4,0L286.4,66.9z M279.4,59.9c0.7,0.7,0.7,1.7,0,2.4l-2.5,2.5c-0.7,0.7-1.7,0.7-2.4,0l-2.5-2.5
		c-0.7-0.7-0.7-1.7,0-2.4l2.5-2.5c0.7-0.7,1.7-0.7,2.4,0L279.4,59.9z M273.4,53.1L251,75.5l-8.2-8.1L265.2,45L273.4,53.1z"/>
	<path class="st0" d="M419.1,265.6v-15.8c0-4-1.6-7.8-4.4-10.6l-1.2-1.2c-1.2-1.2-2.7-2.1-4.2-2.6c-1.7-0.6-3-2.1-3.4-3.9
		c-0.1-0.5-0.6-0.9-1.1-0.9h-1v-4.9c0-0.6-0.5-1.1-1.1-1.1h-3c-0.6,0-1.1,0.5-1.1,1.1v4.9h-1c-0.4,0-0.8,0.3-1,0.7v0.1
		c0,0,0,0.1,0,0.1c0,0.1,0,0.1,0,0.2v27c-0.7,0-1.3,0.6-1.3,1.3c0,0.7,0.6,1.3,1.3,1.3c0,0,0,0,0,0h0.1c0.5,2.6,3.1,4.2,5.6,3.7
		c1.8-0.4,3.3-1.8,3.7-3.7h0.1c0.7,0,1.3-0.6,1.3-1.3c0-0.7-0.6-1.3-1.3-1.3c0,0,0,0,0,0v-16.1c0-1.8,1.7-3.3,3.2-2.4
		c0.4,0.3,0.9,0.6,1.2,1l1.2,1.2c2,2,3.1,4.6,3.1,7.4v15.8c0,3.4-1.4,6.6-3.7,9c-1,1-2.1,1.8-3.4,2.4c-1.5,0.7-3.2,1-4.9,1v-3.2h4.6
		c0.9,0,1.6-0.7,1.6-1.6c0-0.9-0.7-1.6-1.6-1.6l0,0h-12.5c-0.9,0-1.6,0.7-1.6,1.6c0,0.9,0.7,1.6,1.6,1.6h4.2v3.2h-9.5
		c-1.2,0-2.2,1-2.2,2.2c0,0,0,0,0,0v2.2c0,0.3,0.3,0.6,0.6,0.6h27.6c0.3,0,0.6-0.3,0.6-0.6v-2.2c0-0.9-0.6-1.8-1.5-2.1
		c-0.2-0.1-0.3-0.3-0.2-0.5c0-0.1,0-0.1,0.1-0.1C417.4,274.3,419.1,270,419.1,265.6z"/>
	<path class="st0" d="M286.9,223.6h13.6c0.5,0,0.9,0.4,0.9,0.9v3.7c0,0.5-0.4,0.9-0.9,0.9h-13.6c-0.5,0-0.9-0.4-0.9-0.9v-3.7
		C286,224,286.4,223.6,286.9,223.6z"/>
	<path class="st0" d="M297.7,224.5h-8.1c-0.7,0-1.3,0.6-1.3,1.3v51.7c0.1,3,2.6,5.3,5.6,5.2c2.8-0.1,5-2.4,5.2-5.2v-51.7
		C299,225.1,298.4,224.5,297.7,224.5z M297.7,277.4c0,2.2-1.8,4-4,4s-4-1.8-4-4v-23.7h8.1V277.4L297.7,277.4z"/>
	<path class="st0" d="M387.6,225.1h-2.2c-2.6-2-3.2-5.7-1.2-8.3c0.3-0.5,0.7-0.9,1.2-1.2h2.2c1,0,1.7-0.8,1.7-1.7
		c0-1-0.8-1.7-1.7-1.7H382c0.9,0,1.7-0.8,1.7-1.7s-0.8-1.7-1.7-1.7h-2.2c-2.6-2-3.2-5.7-1.2-8.3c0.3-0.5,0.7-0.9,1.2-1.2h2.2
		c1-0.1,1.7-0.9,1.6-1.9c-0.1-0.9-0.7-1.5-1.6-1.6h-4.2c0.8,0,1.5-0.6,1.6-1.4c0-0.8-0.6-1.4-1.4-1.4h-1.8c-2.1-1.5-2.7-4.4-1.2-6.5
		c0.3-0.5,0.7-0.9,1.2-1.2h1.8c0.8,0,1.4-0.6,1.4-1.4c0-0.8-0.6-1.4-1.4-1.4h-39c-2.4,0-4.4,2-4.4,4.4v4.5c0,2.4,2,4.4,4.4,4.4h-5.2
		c-3,0-5.4,2.4-5.4,5.4v5.5c0,3,2.4,5.4,5.4,5.4h5.7c-3,0-5.4,2.4-5.4,5.4v5.5c0,3,2.4,5.4,5.4,5.4h48.1c0.9,0,1.7-0.8,1.7-1.7
		C389.3,225.8,388.5,225.1,387.6,225.1z M373.1,189.2c0,1.4,0.5,2.8,1.5,3.9H339c-0.9,0-1.6-0.7-1.6-1.6V187c0-0.9,0.7-1.6,1.6-1.6
		h35.6C373.7,186.4,373.1,187.8,373.1,189.2z M376.3,204c0,1.8,0.7,3.5,1.9,4.8h-44.4c-1.1,0-2-0.9-2-2v-5.5c0-1.1,0.9-2,2-2h44.4
		C376.9,200.5,376.3,202.2,376.3,204z M382,220.3c0,1.8,0.7,3.5,1.9,4.8h-44.4c-1.1,0-2-0.9-2-2v-5.5c0-1.1,0.9-2,2-2h44.4
		C382.6,216.8,381.9,218.5,382,220.3L382,220.3z"/>
	<path class="st0" d="M314,144.5v47l47-47H314z M343.2,145.1h0.8v2.4h-0.8V145.1z M339.4,145.1h0.8v2.4h-0.8V145.1z M335.6,145.1
		h0.8v2.4h-0.8V145.1z M331.8,145.1h0.8v2.4h-0.8V145.1z M327.9,145.1h0.8v2.4h-0.8V145.1z M324.1,145.1h0.8v2.4h-0.8V145.1z
		 M317.3,147.5h-0.8v-2.4h0.8V147.5z M320.3,145.1h0.8v2.4h-0.8V145.1z M320.9,174.8v-23.3h23.3L320.9,174.8z M347.7,147.5H347v-2.4
		h0.8L347.7,147.5L347.7,147.5z M351.5,147.5h-0.7v-2.4h0.8L351.5,147.5L351.5,147.5z M354.5,147.5v-2.4h0.8v2.4H354.5z"/>
	<path class="st0" d="M415.3,225.4L415.3,225.4c1,1,2.6,1,3.6,0.1c1.7,0.4,3.6-0.2,4.8-1.4l9.1-9.1c1.5-1.6,1.8-3.1,0.4-4.5
		l-0.1-0.1l3.2-3.2c8.2,6.2,19.9,4.6,26.1-3.7c6.2-8.2,4.6-19.9-3.7-26.1c-8.2-6.2-19.9-4.6-26.1,3.7c-5.2,6.9-5,16.3,0.4,23
		l-3.2,3.2c-1.5-1.2-2.9-0.9-4.3,0.5l-9.1,9.1c-1.4,1.4-1.9,3.3-1.3,5.2C414.3,223,414.4,224.5,415.3,225.4z M447.5,207.8
		c-8.6,0-15.5-7-15.5-15.5c0-8.6,7-15.5,15.5-15.5c8.6,0,15.5,7,15.5,15.5C463.1,200.8,456.1,207.8,447.5,207.8L447.5,207.8z"/>
	<polygon class="st0" points="371.5,278.1 370.1,276.6 373.2,273.5 369.5,269.7 367.5,271.7 366,270.2 368,268.3 364.2,264.5 
		361.1,267.6 359.6,266.2 362.8,263 359,259.3 357,261.2 355.6,259.8 357.6,257.8 353.8,254 350.6,257.2 349.2,255.7 352.3,252.6 
		348.5,248.8 346.6,250.8 345.1,249.3 347.1,247.4 343.3,243.6 340.2,246.7 338.8,245.3 341.9,242.1 338.1,238.4 336.1,240.3 
		334.7,238.9 336.7,236.9 332.9,233.1 329.7,236.3 328.3,234.8 331.4,231.7 327.6,227.9 325.7,229.9 324.2,228.4 326.2,226.5 
		322.4,222.7 319.3,225.8 317.9,224.4 321,221.2 317.2,217.5 315.2,219.4 313.8,218 315.8,216 313.2,213.4 306.8,219.8 370.5,283.6 
		376.9,277.2 374.7,274.9 	"/>
	<path class="st0" d="M426.6,163.5c-0.3-1.8-0.8-3.5-1.5-5.2l-5.7,2.4l-0.6-1.5l5.6-2.3c-1.3-2.8-3.1-5.3-5.2-7.6l-4.2,4.2l-1.1-1.1
		l4.2-4.2c-2.3-2.1-4.8-3.8-7.6-5l-2.2,5.4l-1.5-0.6l2.2-5.4c-2.9-1.1-5.9-1.7-8.9-1.7v5.9h-1.6v-5.9c-3.1,0.1-6.1,0.7-8.9,1.7
		l2.3,5.4l-1.5,0.6l-2.2-5.4c-2.8,1.2-5.4,2.9-7.6,5l4.2,4.2l-1.1,1.1l-4.2-4.2c-2.1,2.2-3.9,4.8-5.2,7.6l5.7,2.3l-0.6,1.5l-5.7-2.4
		c-0.7,1.7-1.2,3.4-1.5,5.2h-2.8v10.2h60.4v-10.2H426.6L426.6,163.5z M382.4,163.5c2.8-9.3,12.6-14.6,22-11.8
		c5.6,1.7,10,6.1,11.8,11.8H382.4z"/>
	<path class="st0" d="M314.5,53.2l1.2-22.8l16.9-16.9l0.4,0.4c0.9,0.7,2.1,0.6,2.8-0.3c0.6-0.7,0.6-1.8,0-2.5L325.3,0.6
		c-0.7-0.8-2-0.9-2.8-0.2s-0.9,2-0.2,2.8c0.1,0.1,0.1,0.2,0.2,0.2l0.2,0.2l-16.9,17.1l-22.6,1.2c-2.2,0.1-3.9,1.9-3.9,4.1
		c0,1,0.4,1.9,1.1,2.6L307.8,56c1.6,1.5,4.1,1.4,5.7-0.2C314.1,55.1,314.5,54.2,314.5,53.2z M315.9,14.5c-0.5-0.5-0.5-1.2,0-1.7
		l6.7-6.7c0.4-0.5,1.2-0.5,1.7-0.1s0.5,1.2,0.1,1.7c0,0-0.1,0.1-0.1,0.1l-6.7,6.7C317.1,15,316.4,15,315.9,14.5z M314.6,17.5
		l-2.4,2.4c-0.4,0.5-1.2,0.5-1.7,0.1s-0.5-1.2-0.1-1.7c0,0,0.1-0.1,0.1-0.1l2.4-2.4c0.5-0.4,1.3-0.3,1.7,0.2
		C314.9,16.5,314.9,17.1,314.6,17.5L314.6,17.5z M308.3,48.6l-20.5-20.5c-0.2-0.2-0.2-0.5,0-0.7c0.1-0.1,0.2-0.2,0.4-0.2l9.5-0.5
		l12,12l-0.5,9.5c0,0.3-0.3,0.5-0.6,0.5C308.5,48.7,308.3,48.7,308.3,48.6L308.3,48.6z"/>
	<path class="st0" d="M259.1,105.1c-0.6-0.3-1.1-0.5-1.7-0.7l-1.5,3l0,0l-0.8,1.6c-13.3-5.8-28.7,0.3-34.5,13.6
		c-5.4,12.3-0.5,26.7,11.2,33.3l-0.9,1.8l-1.4,2.8l0,0l-0.1,0.1l2.4,1.2l0,0c3.9,1.8,8.1,2.8,12.4,2.9v5.6H237c-1.7,0-3,1.3-3,3v2.8
		h24.7v-2.8c0-1.7-1.3-3-3-3h-7.6v-5.8c17.3-1.7,30-17,28.3-34.3C275.4,119.4,268.8,109.9,259.1,105.1z M225.1,135.8
		c-1,1-1.8,2-2.5,3.2l-1.3,3.7c-3-8.2-1.6-17.4,3.5-24.4c0.7,0.3,1.2,1.1,1.2,1.9v2.8l-1.4,3.4v2.1c0,0.3,0.2,0.5,0.5,0.5
		c0.6,0,1,0.4,1.1,0.9l0.1,0.6C226.6,132.3,226.2,134.2,225.1,135.8L225.1,135.8z M252.3,109.1l0.8,0.9c1.1,1.2,1.4,3.5-0.1,3.6
		c-0.9,0-1.8-0.4-2.3-1.1h-0.6c-1.2,0-1.8-1.3-0.7-1.3h1.4c0.3,0,0.5-0.3,0.5-0.6c0-0.1,0-0.2-0.1-0.3c-0.4-0.5-1.1-0.6-1.6-0.2
		l-0.4,0.2h-2.3c-0.3,0.1-0.5-0.1-0.6-0.4s0.1-0.5,0.4-0.6c0.1,0,0.1,0,0.2,0h0.3c0.1,0,0.1-0.1,0.1-0.1c0,0,0-0.1-0.1-0.1l-1.3-1
		C248.1,108.2,250.3,108.5,252.3,109.1L252.3,109.1z M244.8,120.6l0.1-0.2c0.4-0.5,1.1-0.6,1.6-0.2c0,0,0,0,0,0l0.7,0.6h0.4
		c0.3,0,0.6-0.3,0.6-0.6c0-0.7,0.6-1.2,1.2-1.2h1.9c0.3,0,0.6-0.3,0.6-0.6v0c0-0.7,0.4-1.3,1-1.7l0.9-0.5c1.1-0.6,2.4-0.3,3.1,0.7
		l0.6,1h0.9c0.5,0,0.9-0.4,0.9-0.9c0-0.5,0.4-0.9,0.9-0.9c0.2,0,0.4,0.1,0.6,0.2l0.7,0.5c0.5,0.3,1,0.5,1.6,0.3
		c4.7,5.5,6.8,12.7,5.5,19.9l-0.8,2c-0.1,0.3-0.4,0.4-0.7,0.3c-0.2-0.1-0.3-0.3-0.3-0.5v-0.7c0-0.1-0.1-0.2-0.3-0.2
		c-0.1,0-0.2,0.1-0.2,0.2l-1.4,3.8c-0.1,0.3-0.4,0.5-0.7,0.5c-0.3,0-0.5-0.2-0.5-0.5v-6.2l-3.6-2.8c-0.3-0.2-0.6-0.1-0.8,0.1
		c-0.1,0.1-0.1,0.3-0.1,0.4l0.2,1.5c0,0.2,0.2,0.4,0.5,0.3c0,0,0,0,0.1,0c0.5-0.1,0.9,0.1,1.1,0.6c0,0,0,0,0,0
		c0.1,0.5-0.1,1-0.6,1.1l-1.8,0.5c-1,0.3-2.2-0.2-2.5-1.3c-0.1-0.2-0.1-0.5-0.1-0.7v-7.5c0-0.3-0.2-0.6-0.4-0.7l-0.2-0.1
		c-0.3-0.1-0.4-0.5-0.3-0.8c0,0,0-0.1,0.1-0.1c0.3-0.3,0.7-0.4,1.1-0.2l0.9,0.5h0.1c0.3,0,0.6-0.3,0.6-0.6c0-0.1,0-0.2,0-0.2
		l-0.1-0.4c-0.3-0.7-1-1.2-1.8-1.2h-0.5l-0.5,0.4c-0.3,0.2-0.6,0.4-1,0.4c-0.4,0-0.7-0.2-0.9-0.5l-1-1.4c-0.1-0.2-0.3-0.2-0.5-0.2
		c-0.2,0.1-0.3,0.3-0.2,0.4c0,0,0,0,0,0l0.4,0.9c0.2,0.4,0,1-0.4,1.2l-0.4,0.2c-0.2,0.1-0.5,0.1-0.6-0.2c-0.1-0.2-0.1-0.5,0.1-0.7
		l0.1-0.1c0.1-0.1,0.2-0.3,0.1-0.4l-0.8-1.5l-1-0.7l-2.5,0.7c-0.5,0.1-1.1-0.1-1.5-0.5C244.4,121.6,244.4,121,244.8,120.6z
		 M251.8,144.9c-0.5,0.2-1,0.6-1.2,1.2c-0.2,0.9-0.7,1.7-1.2,2.4c-0.7,0.6-1.5,1-2.5,1h-3.4c-0.5,0-0.9,0.2-1.1,0.6
		c-0.5,0.8-1.3,1.3-2.2,1.2c-1.3-0.1-2.3-1-2.6-2.3c-0.4-1.7,0.6-3.3,1.8-4.5c0.6-0.6,0.9-1.4,0.9-2.2v-5c0-0.9-0.5-1.8-1.2-2.3
		l-1.5-1c-1.5-1-2.5-2.8-2.5-4.6v-0.7c0-1.8,1.1-3.4,2.8-4.1l3.5-1.4h5.9c0.7,0,1.3,0.3,1.8,0.8c0.5,0.5,0.7,1.2,0.7,1.9v0.6
		c0,0.8,0.6,1.4,1.4,1.5c1.1,0.1,2,0.5,2.8,1.3c0.7,0.8,1.2,1.8,1.2,2.9l0.1,7.6c0,0.5,0.4,0.9,0.9,0.9h1c0.5,0,0.9,0.4,0.9,0.9v0
		c0,0.5-0.3,1-0.8,1.2L251.8,144.9z M255.1,150.2c-0.1,0.6-0.5,1.2-1.1,1.4l-2.7,1c-1.2,0.5-2.5-0.8-1.6-1.7l0.5-0.5h2.7l1.2-1.3
		h0.2c0.5,0,0.9,0.4,0.9,0.9C255.1,150.1,255.1,150.2,255.1,150.2L255.1,150.2z M228.2,114.1c4.1-3.4,9.1-5.5,14.3-6l-0.8,0.3
		c-0.4,0.2-0.1,0.5,0.1,0.5c1.3,0,2.6,1.4,1.6,2.1c-1.1,0.7-2.5,1.9-3,1.9c-1.1-0.5-2.1-1.1-3.1-1.8l-5.3,0.8l-2.6,2.2
		C229.1,114.4,228.5,114.4,228.2,114.1C228.2,114.1,228.2,114.1,228.2,114.1L228.2,114.1z M270.2,145.8c-6.8,13.6-23.1,19.4-36.9,13
		l0.9-1.7c13.3,5.8,28.7-0.3,34.5-13.6c5.4-12.3,0.5-26.7-11.2-33.3l0.9-1.7C271.8,115.6,277,132.2,270.2,145.8L270.2,145.8z"/>
	<path class="st0" d="M361.3,7.4V3.7c0-2-1.6-3.6-3.6-3.6c0,0,0,0,0,0h-4c-2,0-3.6,1.6-3.6,3.6c0,0,0,0,0,0v3.7
		c-0.5,0.1-0.8,0.7-0.7,1.2c0.1,0.3,0.4,0.6,0.7,0.7v34.4c0,0,0.1,0.1,0.2,0.3l5.1,10.7c0.1,0.3,0.4,0.3,0.6,0l5.1-10.7
		c0.1-0.2,0.2-0.3,0.2-0.3V9.4l0,0c0.5-0.1,0.9-0.7,0.7-1.2C361.9,7.8,361.6,7.5,361.3,7.4z M356.3,51.8h-1.1l-3.5-7.7h7.9
		L356.3,51.8z"/>
	<path class="st0" d="M379.1,263.4l1.9,1.9c1,1,2.6,1,3.7,0l2-2c1-1,1-2.6,0-3.6c0,0,0,0,0,0l-1.9-1.9c0.3-0.3,0.3-0.7,0-1
		s-0.7-0.3-1,0l-17.5-17.5l-0.2-0.1l-8-2.8c-0.2-0.1-0.4,0-0.3,0.3l2.8,8c0,0.1,0.1,0.2,0.1,0.2l17.5,17.5l0,0c-0.3,0.3-0.3,0.7,0,1
		C378.4,263.7,378.8,263.7,379.1,263.4L379.1,263.4z M359.1,238.3l0.6-0.6l5.7,2.2l-4,4L359.1,238.3z"/>
	<path class="st0" d="M295.3,167.7l0.2-0.2c2.5-2.6,2.4-6.8-0.2-9.4c-2.6-2.5-6.6-2.5-9.2,0l-0.2,0.2l-2.8,2.8l-0.9,0.9l0,0
		l-9.9,9.9c-0.4,0.4-0.4,1,0,1.4c0,0,0,0,0,0l0.1,0.1l-26.8,26.8c-0.5,0.5-0.6,1.1-0.4,1.8l-3.7,3.7c0.6,2.9-0.3,5.9-2.4,8l0.1,0.1
		l5-5c-0.4-0.7-0.1-1.6,0.6-2c0.7-0.4,1.6-0.1,2,0.6c0.4,0.7,0.1,1.6-0.6,2c-0.4,0.2-0.9,0.2-1.4,0l-5,5l0.1,0.1
		c2.1-2.1,5.1-3,8-2.4l3.8-3.8c0.6,0.1,1.2,0,1.6-0.4l0.3-0.3l0,0l26.5-26.5l0.1,0.1c0.4,0.4,1,0.4,1.4,0c0,0,0,0,0,0l9.9-9.9l0,0
		l2.1-2.1c1.1,1.1,1.1,3,0,4.2c0,0,0,0,0,0l-15.3,15.3l0,0c-0.4,0.4-0.5,1.1-0.1,1.7l0,0l0.8,0.8l16.2-16.2
		C297.3,173,297.3,169.7,295.3,167.7z"/>
	<path class="st0" d="M430,76.3l-4.6-4.6c-0.2-0.2-0.6-0.2-0.8,0c-0.1,0.1-0.2,0.3-0.2,0.4v3.5h-13.3c3.9-1.9,6.3-5.8,6.3-10.1V37.1
		c0-3.4,2.8-6.2,6.2-6.2h2.8v-2.4h-2.8c-4.7,0-8.5,3.8-8.5,8.5v28.4c0.4,5-3.3,9.3-8.2,9.7c-5,0.4-9.3-3.3-9.7-8.2c0-0.5,0-1,0-1.5
		V37.1c0-4.7-3.8-8.5-8.5-8.5h-3v2.4h3c3.4,0,6.2,2.8,6.2,6.2v28.4c0,4.3,2.4,8.2,6.3,10.1h-17.7V44.1h3.5c0.3,0,0.6-0.2,0.6-0.5
		c0-0.2-0.1-0.3-0.2-0.4l-4.6-4.6c-0.5-0.5-1.4-0.5-1.9,0l-4.6,4.6c-0.2,0.2-0.2,0.6,0,0.8c0.1,0.1,0.3,0.2,0.4,0.2h3.5v31.5h-4v3.3
		h4v4h3.3v-4h41v3.5c0,0.3,0.2,0.6,0.5,0.6c0.2,0,0.3-0.1,0.4-0.2l4.6-4.6C430.5,77.7,430.5,76.9,430,76.3z"/>
	<rect x="427.9" y="229.6" class="st0" width="20.9" height="4.2"/>
	<rect x="378.8" y="9.8" class="st0" width="20.9" height="4.2"/>
	<rect x="227.7" y="93.8" class="st0" width="20.9" height="4.2"/>
	<polygon class="st0" points="277.8,223.7 269.5,223.7 269.5,215.4 265.3,215.4 265.3,223.7 256.9,223.7 256.9,227.9 265.3,227.9 
		265.3,236.2 269.5,236.2 269.5,227.9 277.8,227.9 	"/>
	<polygon class="st0" points="453,47.9 444.6,47.9 444.6,39.6 440.4,39.6 440.4,47.9 432.1,47.9 432.1,52.1 440.4,52.1 440.4,60.4 
		444.6,60.4 444.6,52.1 453,52.1 	"/>
	<polygon class="st0" points="293.4,215.6 280.8,202.9 293.4,190.4 295.9,192.9 285.8,202.9 296,213.1 	"/>
	<polygon class="st0" points="483.6,164.7 473.6,154.7 483.5,144.8 485.5,146.8 477.6,154.7 485.6,162.7 	"/>
	<polygon class="st0" points="402.3,183.3 413.2,194.2 402.4,205 400.2,202.8 408.9,194.2 400.2,185.5 	"/>
	<path class="st0" d="M306.5,257.4c0-3.6,2.9-6.5,6.5-6.5c3.6,0,6.5,2.9,6.5,6.5c0,0,0,0,0,0v1.6c0.1,3.4-2.5,6.2-5.9,6.3
		c-0.2,0-0.4,0-0.6,0c-1.8,0.1-3.5-0.6-4.8-1.8c-1.2-1.2-1.8-2.8-1.8-4.5V257.4z M310,259.1c0,0.8,0.2,1.6,0.8,2.3
		c0.5,0.6,1.4,1,2.2,0.9c0.8,0,1.6-0.3,2.1-0.9c0.5-0.7,0.8-1.5,0.8-2.3v-1.6c0-0.8-0.2-1.7-0.8-2.3c-1.1-1.2-3-1.2-4.2-0.1
		c0,0-0.1,0.1-0.1,0.1c-0.5,0.7-0.8,1.5-0.8,2.3L310,259.1L310,259.1z M314,280.1l-2.6-1.5l15-24.1l2.6,1.5L314,280.1z M321.2,274.8
		c0-3.6,2.9-6.5,6.5-6.5c3.6,0,6.5,2.9,6.5,6.5c0,0,0,0,0,0v1.6c0.1,3.4-2.5,6.2-5.8,6.4c-0.2,0-0.4,0-0.7,0
		c-1.8,0.1-3.5-0.6-4.8-1.8c-1.2-1.2-1.8-2.8-1.8-4.5V274.8z M324.8,276.5c0,0.8,0.3,1.7,0.8,2.3c0.5,0.7,1.3,1,2.2,1
		c0.8,0.1,1.7-0.3,2.2-0.9c0.5-0.7,0.8-1.5,0.7-2.3v-1.6c0-0.8-0.2-1.7-0.8-2.3c-0.5-0.7-1.3-1-2.2-1c-0.8,0-1.7,0.3-2.2,1
		c-0.5,0.7-0.8,1.5-0.8,2.3L324.8,276.5L324.8,276.5z"/>
	<path class="st0" d="M442.5,76.7c0-4.1,3.4-7.5,7.5-7.5s7.5,3.4,7.5,7.5v1.9c0.2,3.9-2.8,7.1-6.7,7.3c-0.3,0-0.5,0-0.8,0
		c-2,0.1-4.1-0.6-5.5-2.1c-1.3-1.4-2.1-3.3-2-5.2L442.5,76.7L442.5,76.7z M446.7,78.6c0,1,0.3,1.9,0.9,2.6c0.6,0.7,1.6,1.1,2.5,1.1
		c0.9,0.1,1.9-0.3,2.5-1.1c0.6-0.8,0.9-1.7,0.9-2.7v-1.9c0-1-0.3-1.9-0.9-2.7c-1.3-1.4-3.4-1.5-4.8-0.2c-0.1,0.1-0.1,0.1-0.2,0.2
		c-0.6,0.8-0.9,1.7-0.9,2.7L446.7,78.6L446.7,78.6z M451.3,102.6l-3-1.8l17.3-27.7l3,1.8L451.3,102.6z M459.6,96.6
		c0-4.1,3.4-7.5,7.5-7.5s7.5,3.4,7.5,7.5v1.9c0.2,3.9-2.8,7.1-6.7,7.3c-0.3,0-0.5,0-0.8,0c-2.1,0.1-4.1-0.6-5.5-2.1
		c-1.3-1.4-2.1-3.3-2-5.2L459.6,96.6L459.6,96.6z M463.7,98.5c0,1,0.3,1.9,0.9,2.6c0.6,0.7,1.6,1.1,2.5,1.1c1,0.1,1.9-0.3,2.5-1.1
		c0.6-0.8,0.9-1.7,0.8-2.7v-1.9c0-1-0.3-1.9-0.9-2.7c-0.6-0.7-1.6-1.1-2.5-1.1c-1-0.1-1.9,0.3-2.5,1.1c-0.6,0.8-0.9,1.7-0.9,2.7
		L463.7,98.5L463.7,98.5z"/>
</g>
<g id="lean-top">
	<line class="st4" x1="724" y1="410.7" x2="1.5" y2="410.7"/>
	<path class="st5" d="M73.4,339.5H46.7c-1.6,0-2.8,1.3-2.8,2.8v9.3H33.4c-6.5,0-11.8,5.3-11.8,11.8V389c0,6.5,5.3,11.8,11.8,11.8
		h10.5v10h59.2v-68.4c0-1.6-1.3-2.8-2.8-2.8L73.4,339.5L73.4,339.5z M43.9,393.2H33.4c-2.3,0-4.2-1.9-4.2-4.2v-25.6
		c0-2.3,1.9-4.2,4.2-4.2h10.5V393.2L43.9,393.2z"/>
	<path class="st6" d="M685,410.3c0,0,30.5-61.4,8-126c-24.1-69.3-81.8-68.2-81.8-68.2"/>
	<circle class="st5" cx="580.5" cy="270.7" r="14.7"/>
	<path class="st5" d="M576.3,224.8l7-22.9c3-9.3,13-14.3,22.2-11.3c9,2.9,14,12.4,11.5,21.5l-6.5,21.3c10,11.4,14.1,30.6,9.9,50.7
		l-77.9-23.7C549.8,242.7,562.6,229.6,576.3,224.8z"/>
	<path class="st5" d="M595.4,410.7c-0.1-0.4-0.1-0.7-0.1-1.1c0-9,21.2-17.1,47.3-17.1s47.2,8.2,47.2,17.1c0,0.4,0,0.7-0.1,1.1H595.4
		z"/>
	<line class="st6" x1="47.5" y1="103.8" x2="7.6" y2="103.8"/>
	<polyline class="st6" points="15.5,206.5 22.5,213.6 37.2,198.9 	"/>
	<line class="st6" x1="122.9" y1="67" x2="104.3" y2="67"/>
	<line class="st6" x1="113.6" y1="76.3" x2="113.6" y2="57.7"/>
	<line class="st6" x1="194.4" y1="39.9" x2="181.2" y2="26.7"/>
	<line class="st6" x1="181.2" y1="39.9" x2="194.4" y2="26.7"/>
	<line class="st6" x1="583.2" y1="125" x2="623.2" y2="125"/>
	<line class="st6" x1="523.1" y1="155.6" x2="542.1" y2="155.6"/>
	<path class="st4" d="M675.6,158.8c0,3.2-2.6,5.7-5.7,5.7c-3.2,0-5.7-2.6-5.7-5.7s2.6-5.7,5.7-5.7l0,0
		C673,153.1,675.6,155.6,675.6,158.8z"/>
	<path class="st6" d="M575,81.2h10.4c5.2-0.2,9.3-4.7,9.1-9.9c-0.2-5.1-4.5-9.1-9.6-9.1h-73.8"/>
	<path class="st6" d="M579.2,74.8l-5.5,5.1c-0.6,0.6-0.6,1.5,0,2.1c0,0,0,0,0,0l5.1,5.5"/>
	<line class="st6" x1="594.4" y1="42.3" x2="540.7" y2="42.2"/>
	<line class="st6" x1="547.7" y1="81.2" x2="523.3" y2="81.2"/>
	<path class="st6" d="M619.2,93.1h7.8c8.8,0.5,15.5,8.1,14.9,16.9c-0.5,8.4-7.4,14.9-15.8,15h-18c-8.8,0-15.9-7.1-15.9-15.9
		c0-8.8,7.1-15.9,15.9-15.9l0,0"/>
	<path class="st6" d="M623.8,99.8l-5.9-5.5c-0.6-0.6-0.7-1.6-0.1-2.2c0,0,0,0,0,0l5.4-5.8"/>
	<path class="st6" d="M105.7,149.6H96c-7.3,0-13.2,5.9-13.2,13.2S88.7,176,96,176h9.7"/>
	<path class="st6" d="M118.7,176h9.7c7.3,0,13.2-5.9,13.2-13.2s-5.9-13.2-13.2-13.2h-9.7"/>
	<line class="st6" x1="127.4" y1="162.8" x2="97" y2="162.8"/>
</g>
</svg>
