<?xml version="1.0" encoding="utf-8"?>
<!-- Generator: Adobe Illustrator 21.0.0, SVG Export Plug-In . SVG Version: 6.00 Build 0)  -->
<svg version="1.1" id="software" xmlns="http://www.w3.org/2000/svg" xmlns:xlink="http://www.w3.org/1999/xlink" x="0px" y="0px"
	 viewBox="0 0 722.5 412.5" style="enable-background:new 0 0 722.5 412.5;" xml:space="preserve">
<style type="text/css">
	.st0{fill:none;stroke:#4782C3;stroke-width:3;stroke-miterlimit:10;}
	.st1{fill:none;stroke:#4782C3;stroke-width:3;stroke-linecap:round;stroke-linejoin:round;}
	.st2{fill:#FFFFFF;stroke:#4782C3;stroke-width:3;stroke-miterlimit:10;}
	.st3{opacity:0.35;fill:#939598;enable-background:new    ;}
	.st4{fill:none;stroke:#4782C3;stroke-width:3;}
	.st5{fill:none;stroke:#4782C3;stroke-width:6;}
	.st6{opacity:0.35;}
	.st7{fill:#939598;}
	.st8{fill:#FFFFFF;}
	.st9{fill:#4782C3;}
	.st10{fill:#FFFFFD;stroke:#4782C3;stroke-width:3;stroke-miterlimit:10;}
	.st11{fill:#E4F0FA;stroke:#4782C3;stroke-width:3;stroke-miterlimit:10;}
	.st12{fill:#FFFFFD;}
	.st13{fill:#7FB2E0;}
	.st14{fill:none;stroke:#E4F0FA;stroke-width:3;}
	.st15{fill:#FFFFFF;stroke:#4782C3;stroke-width:3;stroke-linecap:round;stroke-linejoin:round;}
	.st16{fill:none;stroke:#4782C3;stroke-width:3;stroke-linejoin:bevel;}
</style>
<line id="software-line-bottom" class="st0" x1="722.5" y1="411" x2="0" y2="411"/>
<g id="software-el">
	<line class="st0" x1="448.7" y1="102.4" x2="368" y2="102.4"/>
	<line class="st0" x1="538.5" y1="121.9" x2="429" y2="121.9"/>
	<line class="st0" x1="345.1" y1="125.8" x2="309.9" y2="125.8"/>
	<line class="st0" x1="708.1" y1="166.9" x2="672.9" y2="166.9"/>
	<line class="st0" x1="496.7" y1="102.4" x2="461" y2="102.4"/>
	<polyline class="st0" points="75.7,228.2 82,234.5 95.1,221.4 	"/>
	<line class="st0" x1="520.7" y1="65.9" x2="504" y2="65.9"/>
	<line class="st0" x1="512.3" y1="74.2" x2="512.3" y2="57.5"/>
	<line class="st0" x1="302.9" y1="131.7" x2="291.1" y2="119.9"/>
	<line class="st0" x1="291.1" y1="131.7" x2="302.9" y2="119.9"/>
	<line class="st0" x1="318.6" y1="49.7" x2="237.9" y2="49.7"/>
	<line class="st0" x1="263.1" y1="62.4" x2="227.4" y2="62.4"/>
	<line class="st0" x1="317.1" y1="36.9" x2="281.4" y2="36.9"/>
	<circle class="st1" cx="650.7" cy="166.9" r="5.1"/>
	<line class="st0" x1="430.2" y1="0" x2="430.2" y2="50"/>
	<line class="st0" x1="415.3" y1="0" x2="415.3" y2="50"/>
	<line class="st0" x1="422.8" y1="0" x2="422.8" y2="50"/>
	<line class="st0" x1="447.8" y1="32.5" x2="397.8" y2="32.5"/>
	<line class="st0" x1="447.8" y1="17.5" x2="397.8" y2="17.5"/>
	<line class="st0" x1="447.8" y1="25" x2="397.8" y2="25"/>
	<rect x="405" y="7.2" class="st2" width="35.5" height="35.5"/>
	<rect x="416" y="18.3" class="st0" width="13.5" height="13.4"/>
</g>
<g id="software-clock">
	<path class="st3" d="M250.8,143.5c0,35.1-28.4,63.5-63.5,63.6s-63.5-28.4-63.6-63.5c0-35.1,28.4-63.5,63.5-63.6l0,0
		C222.4,80,250.8,108.4,250.8,143.5z"/>
	<circle class="st2" cx="178" cy="139.2" r="63.2"/>
	<line class="st4" x1="178" y1="94.5" x2="178" y2="82.5"/>
	<line class="st4" x1="178" y1="196" x2="178" y2="184"/>
	<line class="st4" x1="133.3" y1="139.2" x2="121.3" y2="139.2"/>
	<line class="st4" x1="234.8" y1="139.2" x2="222.8" y2="139.2"/>
	<g id="software-clock-el">
		<line id="software-clock-el3" class="st4" x1="216.2" y1="101.2" x2="170.3" y2="147.2"/>
		<line id="software-clock-el2" class="st5" x1="182.7" y1="143.8" x2="150.7" y2="111.8"/>
		<circle id="software-clock-el1" class="st2" cx="178" cy="139.2" r="5.1"/>
	</g>
</g>
<g id="software-ruler">
	<g class="st6">
		<polygon class="st7" points="574.2,103.1 574.2,399.6 610.2,399.6 610.2,103.1 602.6,97.4 		"/>
	</g>
	<path class="st8" d="M564.5,97.9h36c0.8,0,1.5,0.7,1.5,1.5v296.5c0,0.8-0.7,1.5-1.5,1.5h-36c-0.8,0-1.5-0.7-1.5-1.5V99.4
		C563,98.6,563.7,97.9,564.5,97.9z"/>
	<path class="st9" d="M600.5,99.4v296.5h-36V99.4H600.5 M600.5,96.4h-36c-1.7,0-3,1.3-3,3v296.5c0,1.7,1.3,3,3,3h36c1.7,0,3-1.3,3-3
		V99.4C603.5,97.8,602.2,96.4,600.5,96.4L600.5,96.4z"/>
	<line class="st4" x1="592.7" y1="115.2" x2="600.8" y2="115.2"/>
	<line class="st4" x1="587.7" y1="131.8" x2="600.8" y2="131.8"/>
	<line class="st4" x1="592.7" y1="148.3" x2="600.8" y2="148.3"/>
	<line class="st4" x1="587.7" y1="164.9" x2="600.8" y2="164.9"/>
	<line class="st4" x1="592.7" y1="181.4" x2="600.8" y2="181.4"/>
	<line class="st4" x1="587.7" y1="198" x2="600.8" y2="198"/>
	<line class="st4" x1="592.7" y1="214.6" x2="600.8" y2="214.6"/>
	<line class="st4" x1="587.7" y1="231.1" x2="600.8" y2="231.1"/>
	<line class="st4" x1="592.7" y1="247.7" x2="600.8" y2="247.7"/>
	<line class="st4" x1="587.7" y1="264.2" x2="600.8" y2="264.2"/>
	<line class="st4" x1="592.7" y1="280.8" x2="600.8" y2="280.8"/>
	<line class="st4" x1="587.7" y1="297.3" x2="600.8" y2="297.3"/>
	<line class="st4" x1="592.7" y1="313.9" x2="600.8" y2="313.9"/>
	<line class="st4" x1="587.7" y1="330.5" x2="600.8" y2="330.5"/>
	<line class="st4" x1="592.7" y1="347" x2="600.8" y2="347"/>
	<line class="st4" x1="587.7" y1="363.6" x2="600.8" y2="363.6"/>
	<line class="st4" x1="592.7" y1="380.1" x2="600.8" y2="380.1"/>
</g>
<g id="software-ipad">
	<path id="software-ipad-cover" class="st10" d="M551.5,204.3h111.4c12.9,0,23.3,10.5,23.3,23.4v160c0,12.9-10.5,23.4-23.3,23.4
		H551.5c-12.9,0-23.3-10.5-23.3-23.4v-160C528.2,214.7,538.6,204.3,551.5,204.3z"/>
	<path id="software-ipad-top-line" class="st9" d="M626.6,217.1c0,1.1-0.9,2-2,2h-34.8c-1.1,0-2-0.9-2-2s0.9-2,2-2h34.8
		C625.7,215.1,626.6,216,626.6,217.1z"/>
	<rect id="software-ipad-screen" x="540.9" y="227.8" class="st11" width="132.2" height="150.1"/>
	<path id="software-ipad-button" class="st10" d="M607.2,386.4c-3.8,0-6.9,3.1-6.8,6.9c0,3.8,3.1,6.9,6.9,6.8c3.8,0,6.8-3.1,6.8-6.9
		C614.1,389.5,611,386.4,607.2,386.4L607.2,386.4z"/>
	<g id="software-ipad-video">
		<rect id="software-ipad-video-box" x="551" y="241.1" class="st12" width="110.7" height="50.6"/>
		<path id="software-ipad-video-button" class="st13" d="M618.7,266l-24.2,13.4c-0.2,0.2-0.5,0.2-0.7,0c-0.2-0.1-0.3-0.4-0.3-0.7
			V252c0-0.3,0.1-0.5,0.3-0.7c0.2-0.1,0.5-0.1,0.7,0l24.2,13.5c0.3,0.1,0.5,0.4,0.4,0.7C619.1,265.8,618.9,265.9,618.7,266z"/>
	</g>
	<g id="software-ipad-left-box">
		<rect x="551" y="300.8" class="st12" width="51.5" height="64.3"/>
		<rect x="554.5" y="304.7" class="st13" width="44.5" height="15.5"/>
		<line class="st14" x1="554.5" y1="343.4" x2="584.2" y2="343.4"/>
		<line class="st14" x1="554.5" y1="335.9" x2="584.2" y2="335.9"/>
		<line class="st14" x1="554.5" y1="328.4" x2="584.2" y2="328.4"/>
		<line class="st14" x1="554.5" y1="351.4" x2="568.6" y2="351.4"/>
	</g>
	<g id="software-ipad-right-box">
		<rect x="610.4" y="300.8" class="st12" width="51.5" height="64.3"/>
		<rect x="613.9" y="304.7" class="st13" width="44.5" height="15.5"/>
		<line class="st14" x1="613.9" y1="343.4" x2="643.7" y2="343.4"/>
		<line class="st14" x1="613.9" y1="335.9" x2="643.7" y2="335.9"/>
		<line class="st14" x1="613.9" y1="328.4" x2="643.7" y2="328.4"/>
		<line class="st14" x1="613.9" y1="351.4" x2="628" y2="351.4"/>
	</g>
</g>
<g id="software-iphone">
	<path id="software-iphone-cover" class="st10" d="M55.3,260.9h190c12.9,0,23.4,10.5,23.4,23.4v103.4c0,12.9-10.5,23.4-23.4,23.4
		h-190C42.4,411,32,400.5,32,387.6V284.2C32,271.3,42.4,260.9,55.3,260.9z"/>
	<rect id="software-iphone-screen" x="65.1" y="273.6" class="st11" width="183.1" height="124.2"/>
	<path id="software-iphone-button" class="st15" d="M56.5,335.7c0-3.8-3.1-6.9-6.9-6.9c-3.8,0-6.9,3.1-6.8,6.9
		c0,3.8,3.1,6.9,6.9,6.9C53.5,342.6,56.5,339.5,56.5,335.7L56.5,335.7z"/>
	<g id="software-iphone-lamp">
		<path class="st2" d="M158.2,333.6c0-16.2-12.8-29.3-28.6-29.3S101,317.4,101,333.6c0,9.6,4.6,18.6,12.4,24.1
			c1.2,0.8,1.9,2.1,2,3.5v9.7c0,4.3,3.4,4,7.6,4h13.3c4.2,0,7.6,0.4,7.6-4v-9.7c0-1.4,0.8-2.8,2-3.5
			C153.7,352.1,158.2,343.2,158.2,333.6z"/>
		<line class="st1" x1="134.5" y1="345.9" x2="134.5" y2="365.9"/>
		<path class="st15" d="M137.4,381.6c0.2,4.6-3.4,8.4-8,8.6c-4.6,0.2-8.4-3.4-8.6-8c0-0.2,0-0.4,0-0.6c0-4.7,3.7-4.6,8.3-4.6
			C133.7,377,137.4,376.9,137.4,381.6z"/>
		<path class="st15" d="M115.2,364.5v9.1c0,3,2.4,5.5,5.5,5.6l0,0h17.7c3,0,5.5-2.5,5.5-5.5l0,0v-9.1h-28.7V364.5z"/>
		<path class="st16" d="M134.7,335.2c1-0.8,2.1-1.2,3.4-1.2c3.1,0.1,5.6,2.8,5.4,5.9c-0.1,2.9-2.5,5.3-5.4,5.4c-3,0-5-1.9-8.6-5.6
			c-8.8-9.5-14.2-3.2-14.2,0c0,3.1,2.4,5.6,5.5,5.7c1.2,0,2.4-0.4,3.4-1.2v21.6"/>
		<line class="st4" x1="79.4" y1="333.4" x2="91.4" y2="333.4"/>
		<line class="st4" x1="167.5" y1="333.4" x2="179.4" y2="333.4"/>
		<line class="st4" x1="94.1" y1="368.8" x2="102.5" y2="360.3"/>
		<line class="st4" x1="156.4" y1="306.5" x2="164.8" y2="298"/>
		<line class="st4" x1="129.4" y1="295.4" x2="129.4" y2="283.4"/>
		<line class="st4" x1="164.8" y1="368.8" x2="156.4" y2="360.3"/>
		<line class="st4" x1="102.5" y1="306.5" x2="94.1" y2="298"/>
	</g>
</g>
<g id="software-laptop">
	<path class="st10" d="M194.4,171.3c0-9.5,7.7-17.2,17.2-17.2l0,0h325.2c9.5,0,17.2,7.7,17.2,17.2V375H194.4V171.3z"/>
	<path class="st10" d="M169.8,375v7.4c0,20.7,16.8,28.6,37.5,28.6h333.8c20.7,0,37.5-7.9,37.5-28.6V375H169.8z"/>
	<rect x="219.2" y="181.7" class="st11" width="314.3" height="181.1"/>
	<circle id="software-laptop-dot-darkblue" class="st9" cx="236.6" cy="193.6" r="3.6"/>
	<circle id="software-laptop-dot-blue" class="st13" cx="246.6" cy="193.6" r="3.6"/>
	<circle id="software-laptop-dot-white" class="st12" cx="256.5" cy="193.6" r="3.6"/>
	<rect id="software-laptop-screen" x="231.2" y="203.7" class="st12" width="290.3" height="147.1"/>
	<g id="software-laptop-lines">
		<rect id="software-laptop-line-18" x="244.9" y="218" class="st13" width="51.1" height="4.2"/>
		<rect id="software-laptop-line-17" x="282.7" y="273.1" class="st13" width="93.3" height="4.2"/>
		<rect id="software-laptop-line-16" x="382.7" y="273.1" class="st13" width="30.8" height="4.2"/>
		<rect id="software-laptop-line-15" x="422.2" y="273.1" class="st13" width="69.5" height="4.2"/>
		<rect id="software-laptop-line-14" x="257" y="245.6" class="st13" width="25.6" height="4.2"/>
		<rect id="software-laptop-line-13" x="269.2" y="286.9" class="st13" width="25.6" height="4.2"/>
		<rect id="software-laptop-line-12" x="245.4" y="314.5" class="st13" width="25.6" height="4.2"/>
		<rect id="software-laptop-line-11" x="245.4" y="231.8" class="st13" width="25.6" height="4.2"/>
		<rect id="software-laptop-line-10" x="278.4" y="231.8" class="st13" width="69.2" height="4.2"/>
		<rect id="software-laptop-line-9" x="355.9" y="231.8" class="st13" width="53.7" height="4.2"/>
		<rect id="software-laptop-line-8" x="269.2" y="259.4" class="st13" width="25.6" height="4.2"/>
		<rect id="software-laptop-line-7" x="305.5" y="259.4" class="st13" width="25.6" height="4.2"/>
		<rect id="software-laptop-line-6" x="383.2" y="259.4" class="st13" width="42" height="4.2"/>
		<rect id="software-laptop-line-5" x="339.5" y="259.4" class="st13" width="35.6" height="4.2"/>
		<rect id="software-laptop-line-4" x="285.8" y="328.3" class="st13" width="14.5" height="4.2"/>
		<rect id="software-laptop-line-3" x="258.2" y="328.3" class="st13" width="18.2" height="4.2"/>
		<rect id="software-laptop-line-2" x="309.7" y="328.3" class="st13" width="20.2" height="4.2"/>
		<rect id="software-laptop-line-1" x="281.6" y="300.7" class="st13" width="226.1" height="4.2"/>
	</g>
</g>
<g id="software-pen">
	<path class="st12" d="M289.6,410.4c-5.1,0-9.2-4.1-9.2-9.2s4.1-9.2,9.2-9.2s9.2,4.1,9.2,9.2l0,0
		C298.8,406.3,294.7,410.4,289.6,410.4z"/>
	<path class="st9" d="M289.6,393.6c4.2,0,7.7,3.4,7.7,7.7s-3.4,7.7-7.7,7.7s-7.7-3.4-7.7-7.7S285.4,393.6,289.6,393.6L289.6,393.6
		 M289.6,390.6c-5.9,0-10.7,4.8-10.7,10.7c0,5.9,4.8,10.7,10.7,10.7c5.9,0,10.7-4.8,10.7-10.7l0,0
		C300.3,395.4,295.5,390.6,289.6,390.6L289.6,390.6L289.6,390.6z"/>
	<rect x="294.2" y="392" class="st12" width="224.9" height="18.5"/>
	<path class="st9" d="M517.6,393.5V409H295.8v-15.5H517.6 M520.6,390.5H292.8V412h227.9L520.6,390.5L520.6,390.5z"/>
	<path class="st12" d="M520.3,410.5c-0.8,0-1.5-0.7-1.5-1.5v-15.5c0-0.8,0.7-1.5,1.5-1.5c0.4,0,0.8,0.2,1.1,0.4l7.8,7.8
		c0.6,0.6,0.6,1.5,0,2.1l0,0l-7.8,7.6C521.1,410.3,520.7,410.4,520.3,410.5z"/>
	<path class="st9" d="M520.3,393.5l7.8,7.8l-7.8,7.7V393.5 M520.3,390.5c-1.7,0-3,1.3-3,3V409c0,1.7,1.3,3,3,3
		c0.8,0,1.5-0.3,2.1-0.9l7.8-7.7c1.2-1.2,1.2-3.1,0-4.2l0,0l-7.8-7.8C521.8,390.8,521.1,390.5,520.3,390.5L520.3,390.5L520.3,390.5z
		"/>
	<rect x="288.1" y="392" class="st12" width="9.1" height="18.5"/>
	<path class="st9" d="M295.8,393.5V409h-6.1v-15.5H295.8 M298.8,390.5h-12.1V412h12.1V390.5L298.8,390.5z"/>
</g>
</svg>
